<?xml version="1.0" encoding="utf-8"?>
<!-- Generator: Adobe Illustrator 23.0.5, SVG Export Plug-In . SVG Version: 6.00 Build 0)  -->
<svg version="1.1" id="Capa_1" xmlns="http://www.w3.org/2000/svg" xmlns:xlink="http://www.w3.org/1999/xlink" x="0px" y="0px"
	 viewBox="0 0 1316.5 1153.2" style="enable-background:new 0 0 1316.5 1153.2;" xml:space="preserve">
<style type="text/css">
	.st0{opacity:0.35;fill:#AFD1E8;enable-background:new    ;}
	.st1{fill:#999999;}
	.st2{fill:#FFFFFF;}
	.st3{fill:#CCCCCC;}
	.st4{fill:#E4E6F2;}
	.st5{fill:#0C7C59;stroke:#8AC926;stroke-miterlimit:10;}
	.st6{opacity:0.3;fill:#8288D4;enable-background:new    ;}
	.st7{fill:#F7931E;}
	.st8{fill:#1B2D54;}
	.st9{fill:#D66E62;}
	.st10{fill:#FBB03B;}
	.st11{fill:#8AC926;}
	.st12{opacity:0.32;fill:#0C7C59;}
	.st13{fill:none;stroke:#0C7C59;stroke-width:1.2;stroke-linecap:round;stroke-linejoin:round;}
	.st14{fill:none;stroke:#375C7F;stroke-width:2;stroke-linecap:round;stroke-linejoin:round;}
	.st15{fill:#C1C5DB;}
	.st16{fill:#808080;}
	.st17{fill:#B3B3B3;}
	.st18{fill:none;stroke:#FFFFFF;stroke-width:2.82;stroke-linecap:round;stroke-linejoin:round;}
	.st19{fill:none;stroke:#AFD1E8;stroke-width:2;stroke-linecap:round;stroke-linejoin:round;}
	.st20{fill:#2A628F;}
	.st21{fill:none;stroke:#2A628F;stroke-width:2;stroke-linecap:round;stroke-linejoin:round;}
	.st22{fill:none;stroke:#999999;stroke-width:2;stroke-linecap:round;stroke-linejoin:round;}
	.st23{fill:none;stroke:#999999;stroke-width:1.74;stroke-linecap:round;stroke-linejoin:round;}
	.st24{fill:none;stroke:#2A628F;stroke-width:1.74;stroke-linecap:round;stroke-linejoin:round;}
	.st25{fill:none;stroke:#BD4FE1;stroke-width:1.74;stroke-linecap:round;stroke-linejoin:round;}
	.st26{fill:none;stroke:#60B806;stroke-width:2;stroke-linecap:round;stroke-linejoin:round;}
	.st27{fill:none;stroke:#7AC943;stroke-width:1.74;stroke-linecap:round;stroke-linejoin:round;}
	.st28{fill:#7AC943;}
	.st29{fill:none;stroke:#FFFFFF;stroke-width:2.49;stroke-linecap:round;stroke-linejoin:round;}
</style>
<g>
	<g>
		<g id="Capa_1-2">
			<path class="st0" d="M99.5,229.9C90,94.9,306.8-148.3,604.2,122.6c133.3,121.5,441.2,62.8,588.4,194.6
				c208,186.3,135.2,646.6-78,686.7C901.4,1044,85.5,975.9,12.7,709.3C-46.1,493.7,119.3,511.7,99.5,229.9L99.5,229.9z"/>
			<g>
				<path class="st1" d="M977.1,362.8L356.4,234.7c-8-1.6-16.1,1-22.2,6.1l-23,16.3l12.3,17.5l-24.1,444.7
					c-0.6,11.4,6.5,20.9,17.4,23.2l615.5,141.4c0,0,19.4-13.7,25.2-17.7c6.8-4.7,11.7-12.5,12.2-21.3l24.9-458.9
					C995.1,374.5,987.9,365,977.1,362.8L977.1,362.8z"/>
				<path class="st2" d="M912.9,887.8L292.2,759.7c-10.8-2.2-18-11.8-17.4-23.2l24.9-458.9c0.9-16.2,16.7-28.9,32.1-25.7
					l620.7,128.1c10.8,2.2,18,11.8,17.3,23.1L945,862.1C944.1,878.3,928.3,891,912.9,887.8z"/>
				<path class="st3" d="M966.6,465l3.3-61.7c0.6-11.4-6.5-20.9-17.3-23.1L331.8,252c-15.4-3.2-31.2,9.5-32.1,25.7l-2.2,41.2
					L966.6,465L966.6,465z"/>
			</g>
			<path class="st4" d="M455.7,423.4l-166.9-37.3v92l151.1,29.7c22,5.3,43.5-9.3,47.9-32.5l0,0C492.1,452.1,477.7,428.7,455.7,423.4
				L455.7,423.4z"/>
			<path class="st5" d="M426.3,487.2l-179.6-40c-22.2-5-37.7-28-34.4-51.3l0,0c3.3-23.3,24.1-38.2,46.4-33.3l179.6,40
				c22.2,5,37.7,28,34.4,51.3l0,0C469.3,477.2,448.5,492.2,426.3,487.2z"/>
			<g>
				<path class="st6" d="M351.9,1032.8c-26.5-14.4-71.1-13.9-99.6,1.2c-4.9,2.6-8.9,5.4-12.2,8.4c-18.6-5.8-43.5-4.1-60.3,4.8
					c-20,10.6-21.2,27.4-2.5,37.6c17.9,9.7,47.5,9.7,67.6,0.3c1.2,0.8,2.5,1.6,3.9,2.3c26.5,14.4,71.1,13.9,99.6-1.2
					C376.7,1071.1,378.4,1047.2,351.9,1032.8L351.9,1032.8z"/>
				<path class="st2" d="M226.4,1045.8l11.7,2.1c8.6-1.3,12.9-2.9,15.7,0.3l0.8,0.9c1,2.2-0.6,5.8-3.8,7.1l-23.4,10.1
					c-4.6,1.2-9.4-0.5-9.4-4.9c0,0,0-12.3,2.1-12.8C224.4,1047.5,222.8,1046.7,226.4,1045.8L226.4,1045.8z"/>
				<path class="st7" d="M232.5,1051.8c-0.1,5.2-11.7,5-11.6-0.2l0.2-16.7l11.6,0.2L232.5,1051.8z"/>
				<path class="st8" d="M239.2,1032.3c-7,10.2-24.5,10.1-28.2,3.1c-2.2-40.9-15-84.5-0.4-140.7l-8.9-146.9l62.7-8.5l-15.7,180.1
					L239.2,1032.3L239.2,1032.3z"/>
				<path class="st9" d="M198.3,752.3c0,0-34.5-33.9-38.8-47c-4.3-13.2,13.1-33.7,13.1-33.7l26.6,13l-9,19.1l21.1,42.5L198.3,752.3
					L198.3,752.3z"/>
				<polygon class="st8" points="225.3,818.8 282.9,829.6 289.1,777.3 231.6,766.5 				"/>
				<path class="st2" d="M284.8,1060.1l11.7,2.1c8.6-1.3,12.9-2.9,15.7,0.3l0.8,0.9c1,2.2-0.6,5.8-3.8,7.1l-23.4,10.1
					c-4.6,1.2-9.4-0.5-9.4-4.9c0,0,0-12.3,2.1-12.8C282.8,1061.9,281.2,1061,284.8,1060.1L284.8,1060.1z"/>
				<path class="st10" d="M290.9,1066.1c-0.1,5.2-11.7,5-11.6-0.2l0.2-16.7l11.6,0.2L290.9,1066.1z"/>
				<path class="st8" d="M297.6,1046.7c-7,10.2-24.5,10.1-28.2,3.1c-2.2-40.9-15-84.5-0.4-140.7l-17-170.6l70.8,15.2l-15.7,180.1
					L297.6,1046.7L297.6,1046.7z"/>
				<path class="st9" d="M269.5,564.4c-0.1,12.2-7.1,17.8-15.7,12.5c-8.5-5.3-10.7-20.4-11.1-32.6c-0.2-5.8,3.1-17,11.6-11.7
					C262.9,538,269.7,552.2,269.5,564.4L269.5,564.4z"/>
				<path class="st9" d="M284.2,560.5c-1.4,12.2-12.3,18.5-20.2,12.2s-13.3-21.2-11.9-33.4s8.9-16.9,16.8-10.6
					C276.8,535,285.6,548.3,284.2,560.5L284.2,560.5z"/>
				<path class="st9" d="M254,595.7l-1.1-0.4c-3.8-1.4-5.8-6-4.4-10.1l7.7-23.2c1.4-4.1,5.6-6.3,9.4-4.9l1.1,0.4
					c3.8,1.4,5.8,6,4.5,10.1l-4.4,23.5C265.4,595.1,257.8,597.1,254,595.7L254,595.7z"/>
				<path class="st8" d="M244.7,567.9c0,0,1.4,8.4,15.4,7.9c10.6-0.4,4.7-20.4,14.7-24.3c13.5-5.4,9.6-19.5,4.2-24.4
					s-12.9-3-22.1-0.5C247.1,529.1,233.5,535.9,244.7,567.9L244.7,567.9z"/>
				<path class="st9" d="M277.6,556.9c-0.3,3-2.8,5.1-5.6,4.8c-2.7-0.3-4.7-3-4.4-5.9s2.8-5.1,5.6-4.8
					C275.9,551.3,277.9,553.9,277.6,556.9z"/>
				<path class="st11" d="M195.5,760.8c-0.3-43,6.7-49.7,3-86.7c-2.5-71,6.6-85,27.9-90.8l14.4-2.4c4.6,0.7,8.9,2.8,13.4,3.7
					c18.9,4.1,51.5,11.7,65.3,19c12.3,6.4-6.7,17.9-6,33.5c5.4,45.6,9.4,114.4,11,137C319.2,806.7,207.9,782.2,195.5,760.8
					L195.5,760.8z"/>
				<path class="st12" d="M318.8,642.2l-10.4,13.3c-10.3,56.5-1.9,109.9-21.9,134.7c12.9-0.6,24.8,0.1,33.3-7.2c0.5,0,4.3-4,4.6-11
					L318.8,642.2L318.8,642.2z"/>
				<path class="st2" d="M238.4,580.1c0,0-3,10.5,8.4,13.8c11.4,3.3,29.7-4.3,29.7-4.3S263.5,576.1,238.4,580.1L238.4,580.1z"/>
				<path class="st8" d="M274.1,560.1L274.1,560.1c-0.9,0-1.7-0.7-1.7-1.7l-2-11.6c0-1,2.3-0.2,3.2-0.3l0,0c0.9,0,3.6-0.7,3.6,0.3
					l-1.5,11.4C275.8,559.2,275,560.1,274.1,560.1L274.1,560.1z"/>
				<path class="st9" d="M427.8,660.3c0,0-26.3,42.2-38.4,49.1c-3.9,2.3-6.6,0-10-1.9c-9.4-5.5-44.1-30.7-44.1-30.7l9.7-38.6
					l36.6,42.1l37.5-31.4L427.8,660.3L427.8,660.3z"/>
				<path class="st11" d="M302.2,656.7l38.7,33.8c13.5,14,37.2-23.4,37.1-36.6c0-1.5-58.5-50.3-58.5-50.3S293.4,631.3,302.2,656.7z"
					/>
				<path class="st9" d="M418.7,656.9L418.7,656.9c1.6,3.6,5.7,5.2,9.1,3.4l8.2-4.3c3.4-1.8,4.8-6.2,3.2-9.8l0,0
					c-1.6-3.6-5.7-5.2-9.1-3.4l-8.2,4.3C418.5,648.9,417.1,653.3,418.7,656.9z"/>
				<path class="st11" d="M206.1,598.3l-41.4,78.4c0,0,28.6,26.1,45.1,18.8s9.8-91.4,9.8-91.4L206.1,598.3L206.1,598.3z"/>
				<line class="st13" x1="199.6" y1="693.7" x2="202.2" y2="650.3"/>
			</g>
			
				<ellipse transform="matrix(0.1602 -0.9871 0.9871 0.1602 62.8099 359.5243)" class="st14" cx="242.7" cy="142.9" rx="20.2" ry="20.2"/>
			
				<ellipse transform="matrix(0.1602 -0.9871 0.9871 0.1602 261.9174 1687.6116)" class="st14" cx="1122.8" cy="689.9" rx="20.2" ry="20.2"/>
			<polygon class="st14" points="74.2,833.3 23.6,818.1 66.1,776.2 			"/>
			<g>
				<path class="st15" d="M733.3,1109.6L733.3,1109.6c-10.5-5-3.1-13.6,11.7-13.6l0,0c16.7,0,30.3-6.5,30.2-14.5l0-4.1
					c0-8.1-13.7-14.6-30.4-14.6l0,0c-14.8,0-22.3-8.6-11.8-13.6l0,0c11.8-5.7,11.7-14.9-0.1-20.6l-6.1-2.9
					c-11.9-5.7-31.1-5.7-42.9-0.1l0,0c-10.4,5-28.3,1.4-28.4-5.7l0,0c0-8-13.7-14.6-30.4-14.6h-8.6c-16.7,0-30.3,6.5-30.2,14.5l0,0
					c0,7.1-17.8,10.6-28.3,5.6l0,0c-11.9-5.7-31.1-5.7-42.9-0.1l-6.1,2.9c-11.8,5.7-11.7,14.9,0.1,20.6c10.5,5,3.1,13.6-11.6,13.6
					l0,0c-16.7,0-30.3,6.5-30.2,14.5l0,4.1c0,8.1,13.7,14.6,30.4,14.6l0,0c14.8,0,22.3,8.6,11.8,13.6l0,0
					c-11.8,5.7-11.7,14.9,0.1,20.6l6.1,2.9c11.9,5.7,31.1,5.7,42.9,0.1c10.4-5,28.3-1.4,28.4,5.7c0,8.1,13.7,14.6,30.4,14.6h8.6
					c16.7,0,30.3-6.5,30.2-14.5l0,0c0-7.1,17.8-10.6,28.3-5.6l0,0c11.9,5.7,31.1,5.7,42.9,0.1l6.1-2.9
					C745.2,1124.5,745.2,1115.3,733.3,1109.6L733.3,1109.6z M568.2,1104.6c-29.5-14.2-29.6-37.1-0.3-51.2
					c29.3-14.1,76.9-14,106.4,0.2c29.5,14.2,29.6,37.1,0.3,51.2C645.3,1118.9,597.7,1118.8,568.2,1104.6z"/>
				<g>
					<path class="st16" d="M745.2,1063.6l0-34.3l-23.9-3.2l-10.3-4.1c-1.2-2.7-3.9-5.2-8.3-7.3l-6.1-2.9c-1.3-0.6-2.7-1.2-4.2-1.7
						l18.2-0.7l1-23l-79.5-7.8l-7.7-15.4l-68.1,1.7l9.5,14.9c-17.8,1.1-40.5,2.5-40.5,2.5l-3.7,4c-7.3-0.4-51.2-3.1-51.2-3.1v29.9
						l16-2.3c-0.5,0.2-1,0.4-1.5,0.6l-6.1,2.9c-4.5,2.2-7.2,4.8-8.3,7.6l-33.4,1.8v37.3l0.3,0.1c-0.2,0.6-0.3,1.3-0.3,2l0,4.1
						c0,8.1,13.7,14.6,30.4,14.6l0,0c1,0,2,0.1,2.9,0.1l0.1,23.5h0c-0.1,3.8,2.8,7.7,8.9,10.6l6.1,2.9c11.9,5.7,31.1,5.7,42.9,0.1
						c10.4-5,28.3-1.4,28.4,5.7c0,8.1,13.7,14.6,30.4,14.6h8.6c16.7,0,30.3-6.5,30.2-14.5l0,0c0-7.1,17.8-10.6,28.3-5.6l0,0
						c11.9,5.7,31.1,5.7,42.9,0.1l6.1-2.9c7.3-3.5,10.1-8.4,8.3-13l0,0v-21c1-0.1,2.1-0.2,3.3-0.2c16.2,0,29.4-6.1,30.1-13.8h0v-0.4
						c0-0.1,0-0.2,0-0.4L745.2,1063.6C745.2,1063.6,745.2,1063.6,745.2,1063.6L745.2,1063.6z M593.4,1072.1
						c-29.5,0-53.3-11.5-53.3-25.7s23.9-25.7,53.3-25.7s53.3,11.5,53.3,25.7S622.8,1072.1,593.4,1072.1z"/>
					<path class="st17" d="M703.4,1056.6L703.4,1056.6c-10.5-5-3.1-13.6,11.7-13.6l0,0c16.7,0,30.3-6.5,30.2-14.5l0-4.1
						c0-8-13.7-14.6-30.4-14.6l0,0c-14.8,0-22.3-8.6-11.8-13.6l0,0c11.8-5.7,11.7-14.9-0.1-20.6l-6.1-2.9
						c-11.9-5.7-31.1-5.7-42.9-0.1l0,0c-10.4,5-28.3,1.4-28.4-5.7l0,0c0-8-13.7-14.6-30.4-14.6h-8.6c-16.7,0-30.3,6.5-30.2,14.5l0,0
						c0,7.1-17.8,10.6-28.3,5.6l0,0c-11.9-5.7-31.1-5.7-42.9-0.1l-6.1,2.9c-11.8,5.7-11.7,14.9,0.1,20.6c10.5,5,3.1,13.6-11.6,13.6
						l0,0c-16.7,0-30.3,6.5-30.2,14.5l0,4.1c0,8.1,13.7,14.6,30.4,14.6l0,0c14.8,0,22.3,8.6,11.8,13.6l0,0
						c-11.8,5.7-11.7,14.9,0.1,20.6l6.1,2.9c11.9,5.7,31.1,5.7,42.9,0.1c10.4-5,28.3-1.4,28.4,5.7c0,8.1,13.7,14.6,30.4,14.6h8.6
						c16.7,0,30.3-6.5,30.2-14.5l0,0c0-7.1,17.8-10.6,28.3-5.6l0,0c11.9,5.7,31.1,5.7,42.9,0.1l6.1-2.9
						C715.3,1071.5,715.3,1062.3,703.4,1056.6L703.4,1056.6z M538.3,1051.6c-29.5-14.2-29.6-37.1-0.3-51.2
						c29.3-14.1,76.9-14,106.4,0.2c29.5,14.2,29.6,37.1,0.3,51.1C615.4,1065.9,567.7,1065.8,538.3,1051.6L538.3,1051.6z"/>
				</g>
			</g>
			<g>
				
					<ellipse transform="matrix(0.7056 -0.7086 0.7086 0.7056 -207.3025 298.5304)" class="st18" cx="255.6" cy="398.8" rx="16.6" ry="18.3"/>
				<line class="st18" x1="292.5" y1="427.3" x2="269.5" y2="410.7"/>
			</g>
			<g>
				<polyline class="st19" points="918.2,607.2 905.8,820.3 493.8,737.2 510.7,446.9 807,506.7 				"/>
				<g>
					<path class="st20" d="M528.3,690.7l0.2-6l27.7-6.8l-0.3,6.9l-12,2.4l-8.4,1.7v0.3l8.1,5.1l11.6,7.2l-0.3,6.9L528.3,690.7
						L528.3,690.7z"/>
					<path class="st20" d="M573.8,669.8l4.8,1l-16.8,58.8l-4.8-1L573.8,669.8L573.8,669.8z"/>
					<path class="st20" d="M580.5,706.7l12-2.4l8.4-1.7v-0.3l-8.1-5.1l-11.6-7.2l0.3-6.9l26.8,17.8l-0.2,6l-27.7,6.8L580.5,706.7
						L580.5,706.7z"/>
				</g>
				<g>
					<path class="st20" d="M540.3,506.8l0.2-6l27.7-6.8l-0.3,6.9l-12,2.4l-8.4,1.7v0.3l8.1,5.1l11.6,7.2l-0.3,6.9L540.3,506.8
						L540.3,506.8z"/>
					<path class="st20" d="M585.8,486l4.8,1l-16.8,58.8l-4.8-1L585.8,486L585.8,486z"/>
					<path class="st20" d="M592.5,522.8l12-2.4l8.4-1.7v-0.3l-8.1-5.1l-11.6-7.2l0.3-6.9l26.8,17.8l-0.2,6l-27.7,6.8L592.5,522.8
						L592.5,522.8z"/>
				</g>
				<line class="st21" x1="711.4" y1="589" x2="853.6" y2="617.7"/>
				<line class="st22" x1="629.2" y1="572.4" x2="681.8" y2="583"/>
				<line class="st23" x1="608.3" y1="645.3" x2="708.2" y2="665.5"/>
				<line class="st24" x1="562.1" y1="635.9" x2="585.9" y2="640.8"/>
				<line class="st25" x1="743.9" y1="672.7" x2="850.6" y2="694.2"/>
				<line class="st21" x1="685.7" y1="623.3" x2="742.1" y2="634.8"/>
				<line class="st26" x1="618" y1="609.7" x2="649.6" y2="616.1"/>
				<line class="st27" x1="792" y1="644.8" x2="852" y2="657"/>
			</g>
			<circle class="st28" cx="877.2" cy="539.6" r="56.3"/>
			<polyline class="st29" points="863.1,546.2 874.8,560.2 901.7,517.3 			"/>
		</g>
	</g>
</g>
</svg>
