<?xml version="1.0" encoding="utf-8"?>
<!-- Generator: Adobe Illustrator 23.0.5, SVG Export Plug-In . SVG Version: 6.00 Build 0)  -->
<svg version="1.1" id="Capa_1" xmlns="http://www.w3.org/2000/svg" xmlns:xlink="http://www.w3.org/1999/xlink" x="0px" y="0px"
	 viewBox="0 0 1195.7 1159.7" style="enable-background:new 0 0 1195.7 1159.7;" xml:space="preserve">
<style type="text/css">
	.st0{opacity:0.35;fill:#AFD1E8;enable-background:new    ;}
	.st1{fill:#8CC63F;}
	.st2{fill:#009245;}
	.st3{opacity:0.35;fill:#5188A1;enable-background:new    ;}
	.st4{fill:#808080;}
	.st5{fill:#4D4D4D;}
	.st6{fill:#E6E6E6;}
	.st7{fill:#B3B3B3;}
	.st8{fill:#FFFFFF;}
	.st9{fill:#372D4F;}
	.st10{fill:none;stroke:#375C7F;stroke-width:2;stroke-linecap:round;stroke-linejoin:round;}
	.st11{fill:none;stroke:#375C7F;stroke-width:1.74;stroke-linecap:round;stroke-linejoin:round;}
	.st12{opacity:0.35;fill:#AFD1E8;stroke:#AFD1E8;stroke-miterlimit:10;enable-background:new    ;}
	.st13{fill:#AFD1E8;stroke:#AFD1E8;stroke-miterlimit:10;}
	.st14{fill:none;stroke:#AFD1E8;stroke-width:2;stroke-linecap:round;stroke-linejoin:round;}
	.st15{fill:none;stroke:#AFD1E8;stroke-width:3.42;stroke-linecap:round;stroke-linejoin:round;}
	.st16{fill:none;stroke:#AFD1E8;stroke-width:2.39;stroke-linecap:round;stroke-linejoin:round;}
	.st17{fill:#FFFFFF;stroke:#666666;stroke-miterlimit:10;}
	.st18{fill:#F2F2F2;stroke:#666666;stroke-miterlimit:10;}
	.st19{fill:#FF614F;}
	.st20{fill:#FCEE21;}
	.st21{fill:none;stroke:#666666;stroke-linecap:round;stroke-linejoin:round;}
	.st22{fill:none;stroke:#666666;stroke-width:2.17;stroke-linecap:round;stroke-linejoin:round;}
	.st23{fill:none;stroke:#666666;stroke-width:2.28;stroke-linecap:round;stroke-linejoin:round;}
	.st24{fill:none;stroke:#666666;stroke-width:2.46;stroke-linecap:round;stroke-linejoin:round;}
	.st25{fill:#8AC926;}
	.st26{fill:none;stroke:#272B47;stroke-width:1.74;stroke-linecap:round;stroke-linejoin:round;}
	.st27{fill:#AFD1E8;}
	.st28{fill:#FBB03B;}
	.st29{fill:#CCCCCC;}
	.st30{fill:#24386B;}
	.st31{fill:none;stroke:#5188A1;stroke-linecap:round;stroke-linejoin:round;}
	.st32{fill:#BA9BC9;}
	.st33{fill:#DADCF0;}
	.st34{fill:#D9E021;}
	.st35{fill:#C5C8E6;}
	.st36{fill:#C2D0F5;}
	.st37{fill:#0C7C59;}
</style>
<g>
	<g>
		<g id="Capa_1-2">
			<path class="st0" d="M192.6,951.8c0,0-237.8-42.5-183.5-216.8c54.3-174.3,134.8-235.4,93.8-359.8
				c-45.3-137.5,78.7-320.7,381-313.6c302.2,7.1,471.4,25.5,600,327.5c142.6,334.8,150.7,557.1-179.7,597.3
				C573.9,1026.5,192.6,951.8,192.6,951.8L192.6,951.8z"/>
			<g>
				<path class="st1" d="M527.3,135.4c10.3,40.1-10.3,65.2,40,139.2c19.1,28.2,26.5,74.3,28.2,120.6l-78.9,112.1
					c-50.1-57.6-97-160.5-82.2-202.1c14.9-41.8,4.2-76.7-21.8-122.4C365.3,99.6,434.1,0,434.1,0S510.4,70,527.3,135.4z"/>
				<path class="st2" d="M460.2,95.9c1.3-0.4,2.6,0.3,3,1.5c38.8,119.9,71.9,228.7,93.5,352.8l-3.9,5.6
					c-21.6-125.8-55-235.6-94.2-356.8C458.2,97.7,458.9,96.3,460.2,95.9L460.2,95.9z"/>
				<path class="st2" d="M497.9,375.6c13.4,23.7,26.7,64,37.7,104.6l-67.1,95.3C383,507.2,338,334.1,338,334.1
					c-112.4,23.4-136.6-71.5-136.6-71.5C426.7,203.3,497.9,375.6,497.9,375.6L497.9,375.6z"/>
				<path class="st1" d="M316,282.4c0.6,0.3,64.9,29.8,121,88.9c33,34.7,56.8,72.8,70.8,113c2.9,8.3,5.3,16.6,7.3,25.1l-3.9,5.5
					c-13.5-60.2-46.2-107.1-77.6-140.2c-55.5-58.4-118.9-87.6-119.6-87.9c-1.2-0.5-1.7-2-1.2-3.2C313.4,282.4,314.8,281.9,316,282.4
					L316,282.4z"/>
			</g>
			<path class="st3" d="M726.1,1156.2l88-11.6l277-218.9c10.6-8.4,7.5-25.3-5.5-29.2l-128-39.3L726.1,1156.2z"/>
			<path class="st4" d="M1090.8,460.8c0,0,0-0.1,0-0.1c0-0.2,0-0.4,0-0.6c0-0.1,0-0.3,0-0.5c0,0,0,0,0-0.1v0c0-0.2,0-0.4-0.1-0.5
				c0-0.2-0.1-0.4-0.1-0.5c0,0,0,0,0-0.1c0,0,0,0,0-0.1c0-0.1,0-0.3-0.1-0.4c0-0.2-0.1-0.4-0.1-0.5c0-0.1,0-0.2-0.1-0.3
				c0,0,0-0.1,0-0.1c0-0.1,0-0.1,0-0.2c-0.1-0.2-0.1-0.4-0.2-0.5c-0.1-0.2-0.1-0.3-0.2-0.5v0h0c-0.1-0.2-0.1-0.4-0.2-0.5
				s-0.1-0.3-0.2-0.5c0,0,0-0.1-0.1-0.1c0,0,0-0.1-0.1-0.1c0-0.1-0.1-0.2-0.1-0.3c-0.1-0.2-0.2-0.3-0.2-0.5
				c-0.1-0.1-0.1-0.2-0.2-0.4l0,0l0,0c-0.1-0.1-0.2-0.3-0.3-0.4c-0.1-0.1-0.2-0.3-0.3-0.4c0-0.1-0.1-0.1-0.1-0.2l-0.1-0.1
				c0,0-0.1-0.1-0.1-0.2c-0.1-0.1-0.2-0.3-0.3-0.4c-0.1-0.1-0.2-0.3-0.3-0.4l0,0c0,0,0,0-0.1-0.1c-0.1-0.1-0.2-0.3-0.3-0.4
				c-0.1-0.1-0.2-0.3-0.3-0.4c-0.1-0.1-0.2-0.2-0.2-0.3c0,0-0.1-0.1-0.1-0.1c-0.2-0.2-0.4-0.4-0.6-0.6c-0.1-0.1-0.1-0.1-0.2-0.2
				c0,0,0,0,0,0c-0.3-0.2-0.6-0.5-0.8-0.7c0,0-0.1-0.1-0.1-0.1c0,0-0.1-0.1-0.1-0.1c-0.1-0.1-0.2-0.2-0.3-0.2
				c-0.2-0.1-0.3-0.3-0.5-0.4c-0.1,0-0.1-0.1-0.2-0.1c0,0-0.1,0-0.1-0.1c-0.1,0-0.1-0.1-0.2-0.1c-0.2-0.1-0.3-0.2-0.5-0.3
				c-0.1-0.1-0.3-0.2-0.4-0.2c0,0-0.1,0-0.1,0c0,0,0,0-0.1,0c-0.2-0.1-0.4-0.2-0.6-0.3s-0.4-0.2-0.6-0.3h0c-0.2-0.1-0.4-0.2-0.6-0.3
				c-0.2-0.1-0.4-0.2-0.6-0.3c0,0-0.1,0-0.1,0c0,0-0.1,0-0.1,0c-0.2-0.1-0.3-0.1-0.5-0.2c-0.2-0.1-0.4-0.1-0.6-0.2
				c-0.1,0-0.1,0-0.2,0c0,0,0,0-0.1,0h0c-0.1,0-0.3-0.1-0.4-0.1c-0.2-0.1-0.4-0.1-0.6-0.2c-0.1,0-15-3.4-15.1-3.4l-17.1,13.3
				c0,0,15.8,2.9,16,3c0.2,0.1,0.4,0.1,0.6,0.2c0.2,0.1,0.4,0.1,0.6,0.2c0.2,0.1,0.4,0.1,0.6,0.2c0.1,0,0.2,0.1,0.3,0.1
				c0.3,0.1,0.7,0.3,1,0.4l0,0c0.3,0.2,0.6,0.3,0.9,0.5c0,0,0.1,0,0.1,0.1c0.3,0.2,0.6,0.3,0.9,0.5c0,0,0.1,0,0.1,0.1
				c0.3,0.2,0.6,0.4,0.8,0.6c0.1,0,0.1,0.1,0.1,0.1c0.3,0.2,0.5,0.4,0.8,0.6c0.1,0.1,0.3,0.2,0.4,0.3c0.2,0.1,0.3,0.3,0.5,0.4
				c0.2,0.2,0.3,0.3,0.5,0.5c0.1,0.1,0.2,0.2,0.3,0.3c0.1,0.1,0.2,0.2,0.3,0.3c0.2,0.2,0.3,0.3,0.5,0.5c0,0,0.1,0.1,0.1,0.1
				c0.2,0.3,0.4,0.5,0.6,0.8c0,0,0,0,0.1,0.1c0.2,0.3,0.4,0.5,0.6,0.8c0,0,0,0.1,0.1,0.1c0.2,0.3,0.3,0.5,0.5,0.8l0.1,0.1
				c0.2,0.3,0.3,0.5,0.4,0.8c0,0,0,0.1,0.1,0.1c0.1,0.3,0.3,0.6,0.4,0.9c0,0,0,0.1,0.1,0.1c0.1,0.3,0.2,0.6,0.3,0.9c0,0,0,0.1,0,0.1
				c0.1,0.3,0.2,0.6,0.2,0.9c0,0,0,0.1,0,0.1c0.1,0.3,0.1,0.6,0.2,0.9c0,0.1,0.1,0.3,0.1,0.5c0,0.2,0,0.4,0.1,0.5c0,0.2,0,0.4,0,0.6
				c0,0.2,0,0.4,0,0.6c0,0.2,0,0.4,0,0.6c0,0.2,0,0.3,0,0.5c0,0,0,0.3-0.1,0.9l-5,47.1c-0.9-0.2-11.8,14.4-11.5,14.6
				c0,0-27,351.3-27,351.3c-0.2,1.6-6.5,13.1-4.9,11.9l16.1-16.2c3.4-3.4,5.5-7.5,5.9-11.6l42.8-406.6c0.2-1.6,0.4-4,0.4-4
				c0-0.2,0-0.3,0-0.5C1090.8,461.1,1090.8,461,1090.8,460.8L1090.8,460.8C1090.8,460.8,1090.8,460.8,1090.8,460.8L1090.8,460.8z"/>
			<path class="st4" d="M1073.7,444.1L456.6,303.9h0l-0.9-0.2l0,0c-0.7-0.2-1.5-0.4-1.6-0.4c-0.2,0-0.4-0.1-0.6-0.1
				s-0.4-0.1-0.6-0.1c-0.2,0-0.4,0-0.6-0.1c-0.2,0-0.4,0-0.7,0s-0.4,0-0.7,0c-0.2,0-0.5,0-0.7,0h0c0,0,0,0-0.1,0c-0.2,0-0.4,0-0.6,0
				c-0.1,0-0.2,0-0.3,0c-0.1,0-0.2,0-0.3,0c-0.1,0-0.1,0-0.2,0c-0.3,0-0.5,0.1-0.7,0.1c0,0,0,0-0.1,0l0,0c-0.3,0-0.6,0.1-0.9,0.2
				c0,0-0.1,0-0.1,0c-0.1,0-0.3,0.1-0.4,0.1c-0.1,0-0.3,0.1-0.5,0.1c0,0-0.1,0-0.1,0c-0.2,0.1-0.4,0.1-0.6,0.2
				c-0.1,0-0.2,0.1-0.3,0.1c0,0,0,0-0.1,0c-0.4,0.2-0.8,0.4-1.1,0.5c0,0,0,0-0.1,0c0,0-0.1,0-0.1,0.1c-0.5,0.3-0.9,0.6-1.4,0.9
				l-16.7,12.6c0.4-0.3,0.9-0.6,1.4-0.9c0.2-0.1,0.4-0.2,0.5-0.3c0.2-0.1,0.5-0.2,0.7-0.3c0.3-0.1,0.5-0.2,0.8-0.3
				c0.1,0,0.2-0.1,0.3-0.1c0.4-0.1,0.8-0.2,1.2-0.3c0.1,0,0.1,0,0.2,0c0.4-0.1,0.9-0.2,1.3-0.2c0,0,0.1,0,0.1,0
				c0.5,0,0.9-0.1,1.4-0.1c0,0,0.1,0,0.1,0c0.5,0,0.9,0,1.4,0c0,0,0.1,0,0.1,0c0.5,0,1,0.1,1.5,0.2c0.2,0,0.4,0.1,0.6,0.1
				c0.2,0,0.3,0.1,0.5,0.1l3.4,0.8l0,0l618.1,140.4L1073.7,444.1L1073.7,444.1z M450.8,306.2L450.8,306.2z"/>
			<path class="st5" d="M1060.3,457L437.7,315.5c-8.5-1.9-15.9,2.6-16.8,10.1l-36.4,340.1c0,0.4,0,0.8-0.1,1.1L376,744
				c-0.8,7.5,6.4,14.9,14.8,16.8l622.6,141.5c8.5,1.9,15.9-2.6,16.8-10.1l39.9-379.5c0.1-0.5,0.1-0.9,0.1-1.3l4-37.3
				C1075,466.6,1068.8,458.9,1060.3,457L1060.3,457z"/>
			<path class="st4" d="M1022.6,905.9l-22.1,16.7l-5.9-8.8L376.2,764.2c-7.5-1.8-21.6,2.1-29.6,8.2L99,961l-0.3-3.5l-37.8,25.7
				l-5.7-0.6l2,15.3c0.9,3.2,3.6-0.6,6.1,0l642.5,161.3c7.5,1.8,20.1-1.3,28-7.4L1012.3,939c4.3-3.3,7.6-9.1,7.4-11.8L1022.6,905.9
				L1022.6,905.9z"/>
			<path class="st4" d="M376.2,764.2c-7.5-1.8-21.6,2.1-29.6,8.2L99,961l-0.3-3.5l-37.8,25.7l-5.9-5.3l0.9,18.7c0,3.1,2.5,4.2,5,4.8
				l644.9,157.8c3.1,0.7,7,0.7,11.1-0.1l-15.7-155.6C705.6,1000.1,376.2,764.2,376.2,764.2L376.2,764.2z"/>
			<path class="st6" d="M703.8,1138.7L60.3,983c-7.5-1.8-7-8.3,0.9-14.3L351.4,751c8-6.1,21.6-8.3,29.1-6.5l637.2,154.1
				c7.4,1.8,7,8.3-0.9,14.3l-285,218C723.9,1137,711.3,1140.5,703.8,1138.7L703.8,1138.7z"/>
			<g>
				<path class="st7" d="M419.4,806.3c-0.9,0.7-2.8,0.9-4.1,0.6l-38.3-9c-1.4-0.3-1.8-1.1-0.9-1.8l25.1-18.2
					c0.9-0.7,2.8-0.9,4.1-0.6l38.3,9c1.4,0.3,1.8,1.1,0.9,1.8L419.4,806.3L419.4,806.3z"/>
				<path class="st7" d="M464.2,850c-0.9,0.7-2.8,0.9-4.2,0.6l-38.3-9c-1.4-0.3-1.8-1.1-0.8-1.8l25.1-18.2c0.9-0.7,2.7-0.9,4.1-0.6
					l38.3,9c1.4,0.3,1.8,1.1,0.9,1.8L464.2,850L464.2,850z"/>
				<path class="st7" d="M442.2,878.1c-0.9,0.7-2.8,0.9-4.1,0.6l-38.3-9c-1.4-0.3-1.8-1.1-0.9-1.8l25.1-18.2
					c0.9-0.6,2.8-0.9,4.1-0.6l38.3,9c1.4,0.3,1.8,1.1,0.9,1.8L442.2,878.1L442.2,878.1z"/>
				<path class="st7" d="M381.8,897c-0.9,0.7-2.8,0.9-4.1,0.6l-38.3-9c-1.4-0.3-1.8-1.1-0.9-1.8l25.1-18.2c0.9-0.7,2.8-0.9,4.1-0.6
					l38.3,9c1.4,0.3,1.7,1.1,0.9,1.8L381.8,897L381.8,897z"/>
				<path class="st7" d="M277,909.7c-0.9,0.7-2.8,0.9-4.1,0.6l-38.3-9c-1.4-0.3-1.8-1.1-0.9-1.8l29.4-21.4c0.9-0.6,2.8-0.9,4.1-0.6
					l38.3,9c1.4,0.3,1.8,1.1,0.9,1.8L277,909.7L277,909.7z"/>
				<path class="st7" d="M343,925.3c-0.9,0.7-3.1,0.8-4.9,0.4l-50.1-11.8c-1.8-0.4-2.5-1.3-1.6-2l29.4-21.4c0.9-0.6,3.1-0.8,4.9-0.4
					l50.1,11.8c1.8,0.4,2.5,1.3,1.6,2L343,925.3L343,925.3z"/>
				<path class="st7" d="M672.4,1003.2c-0.8,0.5-2.5,0.7-3.9,0.4l-38.2-9c-1.4-0.3-1.9-1-1.2-1.6l10.9-7.9c0.7-0.5,2.5-0.7,3.9-0.4
					l38.2,9c1.4,0.3,1.9,1,1.1,1.6L672.4,1003.2L672.4,1003.2z"/>
				<path class="st7" d="M723.5,1015.9c-0.8,0.5-2.5,0.7-3.9,0.4l-38.2-9c-1.4-0.3-1.9-1-1.2-1.6l10.9-7.9c0.7-0.5,2.5-0.7,3.9-0.4
					l38.2,9c1.4,0.3,1.9,1,1.1,1.6L723.5,1015.9L723.5,1015.9z"/>
				<path class="st7" d="M777.7,1028.2c-0.7,0.5-2.4,0.7-3.8,0.4l-38.3-9c-1.4-0.3-1.9-1-1.2-1.5l10.5-7.6c0.7-0.5,2.5-0.7,3.8-0.4
					l38.3,9c1.4,0.3,1.9,1,1.2,1.5L777.7,1028.2L777.7,1028.2z"/>
				<path class="st7" d="M744.2,1001.3c-0.7,0.5-2.4,0.7-3.8,0.4l-38.3-9c-1.4-0.3-1.9-1-1.2-1.5l10.5-7.6c0.7-0.5,2.5-0.7,3.8-0.4
					l38.3,9c1.4,0.3,1.9,1,1.2,1.5L744.2,1001.3L744.2,1001.3z"/>
				<path class="st7" d="M606.2,987.4c-0.9,0.7-2.8,0.9-4.2,0.6l-249-58.8c-1.4-0.3-1.8-1.1-0.9-1.8l29.4-21.4
					c0.9-0.6,2.8-0.9,4.1-0.6l249,58.8c1.4,0.3,1.8,1.1,0.9,1.8L606.2,987.4L606.2,987.4z"/>
				<path class="st7" d="M336.1,919.1c-0.1,0-0.2,0-0.4,0l-29.3-6.9c-0.2,0-0.3-0.1-0.2-0.1l1.8-1.3c0,0,0.2,0,0.4,0l29.3,6.9
					c0.2,0,0.3,0.1,0.2,0.1L336.1,919.1z"/>
				<path class="st7" d="M261,898.7c-0.1,0-0.2,0.1-0.2,0l-12.4-2.9c-0.1,0-0.1-0.1,0-0.1l1.8-1.3c0.1,0,0.2-0.1,0.2,0l12.4,2.9
					c0.1,0,0.1,0.1,0,0.1L261,898.7z"/>
				<path class="st7" d="M434.3,909.4c-0.9,0.7-2.8,0.9-4.1,0.6l-38.3-9c-1.4-0.3-1.8-1.1-0.9-1.8l25.1-18.2
					c0.9-0.7,2.8-0.9,4.1-0.6l38.3,9c1.4,0.3,1.8,1.1,0.9,1.8L434.3,909.4L434.3,909.4z"/>
				<path class="st7" d="M487,921.8c-0.9,0.7-2.8,0.9-4.1,0.6l-38.3-9c-1.4-0.3-1.8-1.1-0.9-1.8l25.1-18.2c0.9-0.7,2.8-0.9,4.1-0.6
					l38.3,9c1.4,0.3,1.7,1.1,0.9,1.8L487,921.8z"/>
				<path class="st7" d="M539.7,934.3c-0.9,0.7-2.8,0.9-4.1,0.6l-38.3-9c-1.4-0.3-1.8-1.1-0.9-1.8l25.1-18.2
					c0.9-0.7,2.8-0.9,4.1-0.6l38.3,9c1.4,0.3,1.7,1.1,0.8,1.8L539.7,934.3L539.7,934.3z"/>
				<path class="st7" d="M592.4,946.7c-0.9,0.7-2.8,0.9-4.1,0.6l-38.3-9c-1.4-0.3-1.8-1.1-0.9-1.8l25.1-18.2
					c0.9-0.7,2.8-0.9,4.2-0.6l38.3,9c1.4,0.3,1.8,1.1,0.8,1.8L592.4,946.7z"/>
				<path class="st7" d="M645.1,959.2c-0.9,0.7-2.8,0.9-4.2,0.6l-38.3-9c-1.4-0.3-1.8-1.1-0.8-1.8l25.1-18.2
					c0.9-0.7,2.8-0.9,4.1-0.6l38.3,9c1.4,0.3,1.8,1.1,0.9,1.8L645.1,959.2L645.1,959.2z"/>
				<path class="st7" d="M697.8,971.6c-0.9,0.7-2.8,0.9-4.1,0.6l-38.3-9c-1.4-0.3-1.8-1.1-0.9-1.8l25.1-18.2
					c0.9-0.7,2.8-0.9,4.2-0.6l38.3,9c1.4,0.3,1.8,1.1,0.9,1.8L697.8,971.6z"/>
				<path class="st7" d="M816.5,999.6c-0.9,0.7-2.8,0.9-4.1,0.6l-104.3-24.6c-1.4-0.3-1.8-1.1-0.9-1.8l25.1-18.2
					c0.9-0.7,2.8-0.9,4.1-0.6l104.3,24.6c1.4,0.3,1.8,1.1,0.9,1.8L816.5,999.6z"/>
				<path class="st7" d="M494.6,890.4c-0.9,0.7-2.7,0.9-4.1,0.6l-38.3-9c-1.4-0.3-1.8-1.1-0.9-1.8l25.1-18.2
					c0.9-0.6,2.7-0.9,4.1-0.6l38.3,9c1.4,0.3,1.7,1.1,0.9,1.8L494.6,890.4L494.6,890.4z"/>
				<path class="st7" d="M547.3,902.8c-0.9,0.7-2.8,0.9-4.1,0.6l-38.3-9c-1.4-0.3-1.8-1.1-0.9-1.8l25.1-18.2
					c0.9-0.6,2.8-0.9,4.1-0.6l38.3,9c1.4,0.3,1.8,1.1,0.9,1.8L547.3,902.8L547.3,902.8z"/>
				<path class="st7" d="M600,915.3c-0.9,0.7-2.8,0.9-4.1,0.6l-38.3-9c-1.4-0.3-1.8-1.1-0.9-1.8l25.1-18.2c0.9-0.6,2.8-0.9,4.1-0.6
					l38.3,9c1.4,0.3,1.8,1.1,0.9,1.8L600,915.3L600,915.3z"/>
				<path class="st7" d="M652.7,927.7c-0.9,0.7-2.8,0.9-4.1,0.6l-38.3-9c-1.4-0.3-1.8-1.1-0.9-1.8l25.1-18.2
					c0.9-0.6,2.8-0.9,4.1-0.6l38.3,9c1.4,0.3,1.8,1.1,0.9,1.8L652.7,927.7L652.7,927.7z"/>
				<path class="st7" d="M705.4,940.2c-0.9,0.7-2.8,0.9-4.1,0.6l-38.3-9c-1.4-0.3-1.8-1.1-0.9-1.8l25.1-18.2
					c0.9-0.6,2.7-0.9,4.1-0.6l38.3,9c1.4,0.3,1.8,1.1,0.9,1.8L705.4,940.2L705.4,940.2z"/>
				<path class="st7" d="M758.1,952.6c-0.9,0.7-2.8,0.9-4.1,0.6l-38.3-9c-1.4-0.3-1.8-1.1-0.9-1.8l25.1-18.2
					c0.9-0.6,2.8-0.9,4.1-0.6l38.3,9c1.4,0.3,1.8,1.1,0.9,1.8L758.1,952.6L758.1,952.6z"/>
				<path class="st7" d="M810.8,965c-0.9,0.7-2.8,0.9-4.1,0.6l-38.3-9c-1.4-0.3-1.8-1.1-0.8-1.8l25.1-18.2c0.9-0.6,2.7-0.9,4.1-0.6
					l38.3,9c1.4,0.3,1.8,1.1,0.9,1.8L810.8,965L810.8,965z"/>
				<path class="st7" d="M516.7,862.4c-0.9,0.7-2.8,0.9-4.2,0.6l-38.3-9c-1.4-0.3-1.8-1.1-0.8-1.8l25.1-18.2
					c0.9-0.7,2.8-0.9,4.1-0.6l38.3,9c1.4,0.3,1.8,1.1,0.9,1.8L516.7,862.4z"/>
				<path class="st7" d="M569.3,874.8c-0.9,0.7-2.8,0.9-4.1,0.6l-38.3-9c-1.4-0.3-1.8-1.1-0.8-1.8l25.1-18.2
					c0.9-0.7,2.8-0.9,4.1-0.6l38.3,9c1.4,0.3,1.8,1.1,0.9,1.8L569.3,874.8z"/>
				<path class="st7" d="M622,887.3c-0.9,0.7-2.8,0.9-4.2,0.6l-38.3-9c-1.4-0.3-1.8-1.1-0.8-1.8l25.1-18.2c0.9-0.7,2.8-0.9,4.1-0.6
					l38.3,9c1.4,0.3,1.8,1.1,0.9,1.8L622,887.3L622,887.3z"/>
				<path class="st7" d="M674.7,899.7c-0.9,0.7-2.8,0.9-4.1,0.6l-38.3-9c-1.4-0.3-1.8-1.1-0.8-1.8l25.1-18.2
					c0.9-0.7,2.8-0.9,4.1-0.6l38.3,9c1.4,0.3,1.8,1.1,0.9,1.8L674.7,899.7z"/>
				<path class="st7" d="M727.4,912.1c-0.9,0.7-2.8,0.9-4.1,0.6l-38.3-9c-1.4-0.3-1.8-1.1-0.8-1.8l25.1-18.2
					c0.9-0.7,2.7-0.9,4.1-0.6l38.3,9c1.4,0.3,1.7,1.1,0.8,1.8L727.4,912.1L727.4,912.1z"/>
				<path class="st7" d="M780.2,924.6c-0.9,0.7-2.8,0.9-4.2,0.6l-38.3-9c-1.4-0.3-1.8-1.1-0.8-1.8l25.1-18.2
					c0.9-0.7,2.8-0.9,4.1-0.6l38.3,9c1.4,0.3,1.8,1.1,0.9,1.8L780.2,924.6L780.2,924.6z"/>
				<path class="st7" d="M832.8,937c-0.9,0.7-2.8,0.9-4.1,0.6l-38.3-9c-1.4-0.3-1.8-1.1-0.8-1.8l25.1-18.2c0.9-0.7,2.8-0.9,4.1-0.6
					l38.3,9c1.4,0.3,1.8,1.1,0.9,1.8L832.8,937L832.8,937z"/>
				<path class="st7" d="M411.5,837.6c-0.9,0.7-2.8,0.9-4.1,0.6l-64.9-15.3c-1.4-0.3-1.8-1.1-0.9-1.8l25.1-18.2
					c0.9-0.7,2.8-0.9,4.1-0.6l64.9,15.3c1.4,0.3,1.8,1.1,0.9,1.8L411.5,837.6L411.5,837.6z"/>
				<path class="st7" d="M920,924.4c-0.9,0.7-2.8,0.9-4.1,0.6L851,909.6c-1.4-0.3-1.8-1.1-0.8-1.8l25.1-18.2
					c0.9-0.7,2.8-0.9,4.1-0.6l64.9,15.3c1.4,0.3,1.8,1.1,0.9,1.8L920,924.4L920,924.4z"/>
				<path class="st7" d="M389.5,865.6c-0.9,0.7-2.7,0.9-4.1,0.6L308,848c-1.4-0.3-1.8-1.1-0.9-1.8l25.1-18.2
					c0.9-0.6,2.8-0.9,4.1-0.6l77.4,18.3c1.4,0.3,1.8,1.1,0.9,1.8L389.5,865.6L389.5,865.6z"/>
				<path class="st7" d="M329.1,884.6c-0.9,0.7-2.8,0.9-4.1,0.6L273.4,873c-1.4-0.3-1.8-1.1-0.9-1.8l25.1-18.2
					c0.9-0.7,2.8-0.9,4.1-0.6l51.6,12.2c1.4,0.3,1.8,1.1,0.9,1.8L329.1,884.6L329.1,884.6z"/>
				<path class="st7" d="M472.1,818.7c-0.9,0.7-2.8,0.9-4.1,0.6l-38.3-9c-1.4-0.3-1.8-1.1-0.9-1.8l25.1-18.2
					c0.9-0.7,2.8-0.9,4.1-0.6l38.3,9c1.4,0.3,1.8,1.1,0.9,1.8L472.1,818.7L472.1,818.7z"/>
				<path class="st7" d="M524.5,831c-0.9,0.7-2.8,0.9-4.2,0.6l-38.3-9c-1.4-0.3-1.8-1.1-0.9-1.8l25.1-18.2c0.9-0.7,2.8-0.9,4.1-0.6
					l38.3,9c1.4,0.3,1.8,1.1,0.9,1.8L524.5,831L524.5,831z"/>
				<path class="st7" d="M577.2,843.5c-0.9,0.7-2.7,0.9-4.1,0.6l-38.3-9c-1.4-0.3-1.8-1.1-0.8-1.8l25.1-18.2
					c0.9-0.7,2.8-0.9,4.1-0.6l38.3,9c1.4,0.3,1.8,1.1,0.8,1.8L577.2,843.5L577.2,843.5z"/>
				<path class="st7" d="M629.9,855.9c-0.9,0.7-2.8,0.9-4.2,0.6l-38.3-9c-1.4-0.3-1.8-1.1-0.9-1.8l25.1-18.2
					c0.9-0.7,2.8-0.9,4.2-0.6l38.3,9c1.4,0.3,1.8,1.1,0.9,1.8L629.9,855.9z"/>
				<path class="st7" d="M682.6,868.3c-0.9,0.7-2.7,0.9-4.1,0.6l-38.3-9c-1.4-0.3-1.8-1.1-0.9-1.8l25.1-18.2
					c0.9-0.7,2.8-0.9,4.2-0.6l38.3,9c1.4,0.3,1.8,1.1,0.8,1.8L682.6,868.3L682.6,868.3z"/>
				<path class="st7" d="M735.3,880.8c-0.9,0.7-2.8,0.9-4.1,0.6l-38.3-9c-1.4-0.3-1.8-1.1-0.8-1.8l25.1-18.2
					c0.9-0.7,2.8-0.9,4.1-0.6l38.3,9c1.4,0.3,1.8,1.1,0.8,1.8L735.3,880.8L735.3,880.8z"/>
				<path class="st7" d="M788,893.2c-0.9,0.7-2.8,0.9-4.1,0.6l-38.3-9c-1.4-0.3-1.8-1.1-0.9-1.8l25.1-18.2c0.9-0.7,2.8-0.9,4.2-0.6
					l38.3,9c1.4,0.3,1.8,1.1,0.9,1.8L788,893.2L788,893.2z"/>
				<path class="st7" d="M840.7,905.7c-0.9,0.7-2.8,0.9-4.1,0.6l-38.3-9c-1.4-0.3-1.7-1.1-0.8-1.8l25.1-18.2
					c0.9-0.7,2.8-0.9,4.1-0.6l38.3,9c1.4,0.3,1.7,1.1,0.8,1.8L840.7,905.7z"/>
				<path class="st7" d="M871.5,920.4c-0.6-0.2-1.4-0.2-2.2-0.1c-0.8,0.1-1.5,0.4-1.9,0.7l-25.1,18.2c-0.4,0.3-0.6,0.7-0.5,1
					c0.2,0.3,0.6,0.6,1.3,0.8l10,2.4l-32.9,23.9c-0.4,0.3-0.6,0.7-0.4,1c0.2,0.3,0.6,0.6,1.3,0.8l25.8,6.1c0.7,0.2,1.4,0.2,2.3,0.1
					c0.8-0.1,1.5-0.4,1.9-0.7l59.6-43.3c0.4-0.3,0.6-0.7,0.4-1c-0.2-0.4-0.6-0.6-1.3-0.8L871.5,920.4L871.5,920.4z"/>
				<path class="st7" d="M322.2,876c-0.1,0-0.2,0-0.4,0l-29.3-6.9c-0.2,0-0.3-0.1-0.2-0.1l1.8-1.3c0,0,0.2,0,0.4,0l29.3,6.9
					c0.2,0,0.3,0.1,0.2,0.1L322.2,876z"/>
			</g>
			<path class="st7" d="M477.4,1046.1l-140.3-32.3c-1.6-0.4-1.6-1.7,0-2.8l58.9-42.4c1.6-1.2,4.3-1.8,5.9-1.5l140.3,32.3
				c1.6,0.4,1.6,1.7,0,2.8l-58.9,42.4C481.7,1045.8,479,1046.4,477.4,1046.1L477.4,1046.1z"/>
			<path class="st8" d="M1041.6,486.9L451.6,351.5c-8-1.8-15.1,1.8-15.9,8.1l-4.9,40.1c-0.1,0.5-0.3,1-0.3,1.5L398.8,689
				c-0.8,6.3,6.5,12.1,14.5,14l585.3,146.8c8,1.8,15.1-1.8,15.9-8.1l5.3-52.5c0.2-0.5,0.3-1,0.3-1.5l34.7-286
				C1055.5,495.3,1049.6,488.7,1041.6,486.9L1041.6,486.9z"/>
			<path class="st9" d="M796.7,1093.2c-0.6,0-1.3-0.3-1.7-0.8c-0.7-0.9-0.5-2.3,0.4-3l26-20.1c0.9-0.7,2.3-0.6,3,0.4
				c0.7,0.9,0.5,2.3-0.4,3l-26,20.1C797.6,1093,797.2,1093.2,796.7,1093.2z"/>
			<path class="st9" d="M764.2,1118.8c-0.6,0-1.3-0.3-1.7-0.8c-0.7-0.9-0.5-2.3,0.4-3l26-20.1c0.9-0.7,2.3-0.6,3,0.4
				c0.7,0.9,0.5,2.3-0.4,3l-26,20.1C765.1,1118.7,764.6,1118.8,764.2,1118.8z"/>
			<circle class="st10" cx="929.6" cy="1094.5" r="19"/>
			
				<ellipse transform="matrix(0.2297 -0.9733 0.9733 0.2297 447.8135 969.3962)" class="st10" cx="836.3" cy="201.8" rx="19" ry="19"/>
			<polygon class="st11" points="1184.6,665.6 1165.6,646.5 1194.8,638 			"/>
			<polygon class="st10" points="48.2,467.4 7.8,496.4 1,440.5 			"/>
			<g>
				<g>
					<path class="st12" d="M967.6,819l-391.5-88.8c-6.8-1.5-10.8-10.3-10-17.2l30.3-258.3c1.1-9.9,12.8-32.7,22.5-30.5l391.7,86.3
						c6.8,1.5,11.1,7.4,10.3,14.3l-32,278.9C987.9,813.7,977.3,821.1,967.6,819L967.6,819z"/>
					<path class="st13" d="M630.4,440.5c0,3.1-2.7,5.4-5.9,5.1c-3.2-0.3-5.8-3-5.7-6c0-3.1,2.7-5.4,5.9-5.1
						C627.9,434.7,630.4,437.4,630.4,440.5z"/>
					<path class="st13" d="M647.6,444.4c0,3.1-2.7,5.4-5.9,5.1s-5.8-3-5.7-6c0-3.1,2.7-5.4,5.9-5.1
						C645.1,438.6,647.6,441.3,647.6,444.4z"/>
					<path class="st13" d="M664.3,448.4c0,3.1-2.7,5.4-5.9,5.1c-3.2-0.3-5.8-3-5.7-6c0-3.1,2.7-5.4,5.9-5.1
						C661.8,442.7,664.4,445.4,664.3,448.4z"/>
				</g>
				<g>
					<line class="st14" x1="696.5" y1="503.5" x2="668.8" y2="721.6"/>
					<line class="st15" x1="631.3" y1="503.6" x2="667.8" y2="511.6"/>
					<line class="st15" x1="614" y1="599.2" x2="650.5" y2="607.2"/>
					<line class="st15" x1="613" y1="622.8" x2="649.5" y2="630.8"/>
					<line class="st15" x1="612" y1="647.9" x2="648.5" y2="655.9"/>
					<line class="st16" x1="643.1" y1="531.7" x2="662.9" y2="536"/>
					<line class="st16" x1="640.4" y1="556.6" x2="658.1" y2="560.5"/>
					<line class="st16" x1="632.5" y1="580.4" x2="653.2" y2="585"/>
					<line class="st14" x1="626" y1="672.5" x2="645.8" y2="676.9"/>
					<line class="st14" x1="623.3" y1="697.4" x2="641" y2="701.3"/>
					<g>
						<line class="st14" x1="715.1" y1="523" x2="963.6" y2="576.8"/>
						<line class="st14" x1="752.5" y1="684.3" x2="937.4" y2="724.8"/>
						<line class="st15" x1="701.8" y1="673.4" x2="731.5" y2="679.8"/>
						<line class="st14" x1="840.9" y1="737.4" x2="932.5" y2="757.3"/>
						<line class="st14" x1="850.7" y1="587.5" x2="955" y2="609.3"/>
						<line class="st15" x1="742.5" y1="564.1" x2="813.4" y2="579.4"/>
						<line class="st14" x1="741" y1="600.5" x2="951.3" y2="646"/>
						<line class="st14" x1="837.7" y1="664.5" x2="943.6" y2="685.8"/>
						<line class="st15" x1="779.6" y1="652" x2="817.3" y2="660.7"/>
						<line class="st15" x1="739.2" y1="643.1" x2="763.5" y2="648.4"/>
					</g>
				</g>
			</g>
			<g>
				<g>
					<path class="st17" d="M886.6,727.1l-445.5-101c-7.8-1.7-12.3-11.7-11.4-19.6l34.5-293.9c1.3-11.2,14.6-37.2,25.6-34.7
						l445.7,98.2c7.8,1.7,12.6,8.4,11.7,16.3l-36.4,317.3C909.6,721,897.7,729.5,886.6,727.1L886.6,727.1z"/>
					<path class="st18" d="M944.2,419.2l5-37.1c0.9-7.9-3.9-14.6-11.7-16.3l-445.7-98.2c-11.1-2.4-23,6.1-24.3,17.3l-3.3,28.5
						L944.2,419.2L944.2,419.2z"/>
					<path class="st19" d="M502.9,296.4c0,3.5-3.1,6.1-6.7,5.8s-6.6-3.4-6.5-6.9s3.1-6.1,6.7-5.8S503,292.9,502.9,296.4z"/>
					<path class="st20" d="M522.4,300.8c0,3.5-3.1,6.1-6.7,5.8s-6.6-3.4-6.5-6.9s3.1-6.1,6.7-5.8S522.5,297.3,522.4,300.8z"/>
					<path class="st1" d="M541.5,305.4c0,3.5-3.1,6.1-6.7,5.8s-6.6-3.4-6.5-6.9c0-3.5,3.1-6.1,6.7-5.8S541.6,301.9,541.5,305.4z"/>
				</g>
				<g>
					<line class="st21" x1="581.1" y1="361.1" x2="546.9" y2="631.2"/>
					<line class="st22" x1="487.3" y1="478.9" x2="528.8" y2="488.1"/>
					<line class="st22" x1="483.2" y1="506.8" x2="524.7" y2="515.9"/>
					<line class="st22" x1="477" y1="537.4" x2="518.5" y2="546.5"/>
					<line class="st23" x1="514.3" y1="434.5" x2="534.4" y2="439"/>
					<line class="st23" x1="509.7" y1="459.1" x2="530.8" y2="463.8"/>
					<g>
						<line class="st22" x1="599.3" y1="390.3" x2="882.1" y2="451.5"/>
						<line class="st22" x1="641.8" y1="573.9" x2="852.2" y2="619.9"/>
						<line class="st22" x1="584.2" y1="561.4" x2="618" y2="568.7"/>
						<line class="st24" x1="753.6" y1="463.7" x2="872.2" y2="488.5"/>
						<line class="st22" x1="630.5" y1="437" x2="711.1" y2="454.5"/>
						<line class="st24" x1="628.7" y1="478.5" x2="868" y2="530.3"/>
						<line class="st22" x1="738.7" y1="551.2" x2="859.3" y2="575.5"/>
						<line class="st22" x1="672.7" y1="537" x2="715.6" y2="546.9"/>
						<line class="st22" x1="626.7" y1="527" x2="654.4" y2="533"/>
					</g>
				</g>
			</g>
			<g>
				<path class="st25" d="M1077.9,562l-116.4-25c-7-1.5-11.9-8.4-11-15.4l13.7-106.4c0.9-7,7.3-11.4,14.3-9.9l116.4,25
					c7,1.5,11.9,8.4,11.1,15.4L1092.2,552C1091.3,559,1084.9,563.5,1077.9,562L1077.9,562z"/>
				<g>
					<path class="st8" d="M971.1,469.6l1-6.7l38.8-4.6l-1.1,7.7l-16.8,1.4l-11.7,1l0,0.3l10.6,6.6l15.2,9.4l-1.1,7.7L971.1,469.6
						L971.1,469.6z"/>
					<path class="st8" d="M1035.9,451.1l6.4,1.6l-29.5,64.5l-6.5-1.6L1035.9,451.1L1035.9,451.1z"/>
					<path class="st8" d="M1041.1,493.4l16.8-1.4l11.7-1l0.1-0.3L1059,484l-15.2-9.4l1.1-7.7l34.8,23l-1,6.7l-38.8,4.6L1041.1,493.4
						L1041.1,493.4z"/>
				</g>
			</g>
			<path class="st26" d="M1093.2,551l13.7-106.4c0,0,0.7-12.9-11.1-15.4l-93.2-20.1"/>
			<g>
				<path class="st27" d="M239.5,522.4l28.6,38.2l32-17.5l8,5.2c0,0-21.7,71.2-37.6,74.5c-16.9,3.5-50.7-62.4-50.7-62.4L239.5,522.4
					L239.5,522.4z"/>
				<path class="st28" d="M314.9,531.5L314.9,531.5c3.3,2.4,4.4,6.5,2.5,9l-9.3,7.6c-1.9,2.5-0.8,0.6-4.1-1.8l0,0
					c-3.3-2.4-5.4-0.3-3-6l5.4-7c0.7-0.9,1.5-1.7,2.5-2.4C310.8,529.8,312.3,529.6,314.9,531.5L314.9,531.5z"/>
				<path class="st29" d="M117.3,938.6c27-14.2,73.6-15.7,104.3-3.2c5.2,2.1,9.6,4.5,13.2,7.1c19.1-6,45.2-5.6,63.4,1.8
					c21.5,8.8,23.6,24,4.6,34c-18.2,9.6-49.2,10.9-70.6,3.2c-1.3,0.8-2.6,1.5-4,2.3c-27,14.2-73.6,15.7-104.3,3.2
					C93.3,974.5,90.4,952.9,117.3,938.6L117.3,938.6z"/>
				<path class="st8" d="M278,960.2l-19.9-18.7c-3.9-3.6-9-5.6-14.1-5.3c-1.9,0.1-3.7,0.3-5.4,0.8c-2.3,0.5-3.4,2.1-3.4,4.3
					l-0.2,4.1c-0.2,6.9-0.9,9.2,3.9,11.1l28.1,11.4C272.7,971.5,288.2,968.4,278,960.2L278,960.2z"/>
				<path class="st28" d="M235.8,938c0.9,4.6,5.1,8.2,9.6,7.6c2.2-0.3,3.8-1.6,4-5.9c-1.7-47.4,2.1-87,0.5-131.3
					c-1.8-49.7-2.8-35-5.6-111.2l-45.7-8.4c10.9,54.8,17,124,17,124C204.7,864,223.9,878.8,235.8,938L235.8,938z"/>
				<path class="st30" d="M195.6,671.8l17.9,116.2c2.2,12.5,2.4,22.4,0.4,34.9c-2.9,18.5,0.2,55.3,17.5,108.5
					c7.4,5.5,14.9,5.2,22.6-0.1c0,0,3.6-119.3,2.9-142.3c-0.7-23-9.5-146.6-9.5-146.6L195.6,671.8L195.6,671.8z"/>
				<path class="st8" d="M159.9,948.3l-0.1,15c-0.1,1.6-1.6,9.9-2.3,11.3c-2,4.2-5.4,5.8-8.7,6.1c-4.4,0.3-13.3-6.9-10.3-15.8
					c2.6-7.8,7.8-20.3,7.8-20.3C152.6,947.1,155.5,948.3,159.9,948.3L159.9,948.3z"/>
				<path class="st28" d="M144.7,948.7c-0.7,5.9,8.9,8.3,12.7,2.3c3.7-47.1,11.3-89.8,14.7-133.9c3.9-49.4,8.4-46.6,14.3-122.3
					l-49.8,3.3c4.6,55.2,2.9,124.3,2.9,124.3C122.2,874.3,140.5,883.1,144.7,948.7L144.7,948.7z"/>
				<path class="st30" d="M132.8,652.2c0,0,7.9,99.5,5.5,121.5c-1.9,17.1-7.1,45.1-9.3,56.8c-0.7,3.8-1.1,7.6-1.1,11.5
					c0.1,17,3,63.6,9.9,92.1c5.5,7.7,17.3,5.9,26,1.1l17-114.6c0.3-1.3,13.9-101.2,13.9-101.2l27.8-3.9L203.9,649
					C203.9,649,129.5,658.5,132.8,652.2L132.8,652.2z"/>
				<path class="st27" d="M218,512.1c-6.2-0.4-11.9-1.5-13.6-2.7c-9.4-6.8-20.7-3-21.9-2.3l-31.6,8.4c-29.2,8.5-27.2,38.9-28.3,55.9
					c0,0,9.5,19.8,10,36c0.4,14,8.3,45.8,5.9,50.2c-1.8,3.3-2.1,24.1,14.9,30.3c15.1,5.5,39.3,17.1,52.3,17.4
					c68.3,1.8,50.1-31.2,49.2-54.3c-0.6-14.5-3.3-57.5-3.1-69.1s-2-65.5-25-68.2L218,512.1L218,512.1z"/>
				<path class="st28" d="M189.9,517.8l1.3-1.3c3.3,1,6.3,0.7,7-2.6l4.1-18.6c0.7-3.3-1.4-6.8-4.8-7.9l-1-0.3
					c-3.3-1-12.7-1-13.4,2.3l-2.7,19.7C179.8,512.5,186.6,516.8,189.9,517.8L189.9,517.8z"/>
				<path class="st28" d="M200.1,505.3c0,0-8.1-1-13-9.6c0,0,4.7,12.5,12,14.6L200.1,505.3z"/>
				<path class="st28" d="M184.8,465.3c3.2-4.9,7.8-5.6,11.9-2.5c4.2-1.6,9.1,1.3,12.6,8c4.8,9.4,6.7,24.1,2,31.2
					c-2,3.1-6.6,4.8-9.5,4.7c-2.7-0.1-5-1.9-7.5-3c-9.1-4-9.3-2.6-12.5-8.9C177,485.5,180.2,472.5,184.8,465.3L184.8,465.3z"/>
				<path class="st30" d="M190.6,468.9c-3.8,8.7-7.6,24.5-8.3,27.1c0,0-13.9-10.5-12.7-18.4c3.8-26.1,18.7-11.4,18.7-11.4
					L190.6,468.9L190.6,468.9z"/>
				<path class="st30" d="M185.7,456.4c-5.5,1.1-9,5-11,12.2c-0.3,0.9-2.4,5-2.5,5.8l3.6-0.9c-0.9,6.2,2.1-2.9,8.3-1.5
					c9.8-3.1,17.4,11.2,28.6,6.4c1.5-0.6,2.6-2,3-3.6c0.4-2.2,0.1-4.8-2.1-6.7c-6.6-5.7-9.9-8.7-17.3-11l-1.8-0.4
					C191.1,456,188.2,455.9,185.7,456.4"/>
				<path class="st8" d="M204.8,500L204.8,500c2.2-0.4,3.7-2.9,3.4-5.6l-7.9,1.3C200.6,498.4,202.7,500.3,204.8,500L204.8,500z"/>
				<path class="st28" d="M178.5,489.8c-0.3,2.9,1.7,5.6,4.7,6.1s5.6-1.6,5.9-4.5s-1.7-5.6-4.7-6.1S178.8,486.9,178.5,489.8z"/>
				<path class="st8" d="M199.8,506.8l5.5,1.9c0,0,2.6,9.8-1.9,13.5l-8.1-5.5C195.3,516.6,200.4,511.9,199.8,506.8L199.8,506.8z"/>
				<path class="st8" d="M195.3,516.6l-5.1,7.9c0,0-16.6-6.3-16.7-15.7l7.6-3.5C181,505.3,188.7,517.1,195.3,516.6L195.3,516.6z"/>
				<path class="st27" d="M125.6,669.5c1.2-7.8,2-48.3,1.6-62.3c-0.3-9.2-1-35.8-2-49.4c6.5,13.2,11.2,18.3,11.9,21.5
					c5.1,25.1,6.2,38.7,18,53.6c22.6,28.6,28.4,43.1,50.6,72.3c-47.5,0.9-62.1-2.9-71.9-9.2C121.6,688.3,125,673.5,125.6,669.5
					L125.6,669.5z"/>
				<line class="st31" x1="233.5" y1="551" x2="235.3" y2="560.4"/>
				<g>
					<path class="st32" d="M132.8,705.7l-22.6,32.8c-0.6,0.6-1.1,1.3-1.5,2.1l0,0c-1.7,3.4-1.4,7.9,1.1,13
						c5.2,10.3,18.1,18.6,28.7,18.5c5.1,0,8.8-2,10.6-5.1l0,0l32.9-49.7C192.3,701.5,142.9,690,132.8,705.7L132.8,705.7z"/>
					<path class="st32" d="M183.7,714.3l-23.6-1.5l-38.4,53.5c5.3,3.6,11.5,5.8,17,5.8c5.1,0,8.8-2,10.6-5.1l32.6-49.3
						C182.5,716.7,183.4,715.3,183.7,714.3L183.7,714.3z"/>
					<path class="st33" d="M170.1,735.5c0,0-35.7,4.8-37.4-29.8l22-31.1l33.3,33.6L170.1,735.5L170.1,735.5z"/>
					<path class="st20" d="M184.3,698.1c5.8,9.6,2.1,18-8.1,18.8c-10.2,0.8-23.2-6.3-28.9-15.9c-5.8-9.6-2.1-18,8.1-18.8
						C165.6,681.4,178.6,688.6,184.3,698.1z"/>
					<polygon class="st20" points="145.4,688 314.7,446 352.6,472.2 186.1,711.1 					"/>
					<path class="st34" d="M160,712.8c5,2.5,16.2,12.1,22.5,2.3l2.9-2.8l167.3-240.1l-13.8-11.2L160,712.8L160,712.8z"/>
					<path class="st8" d="M363.6,414.5l-45,28.8c-1.1,0.5-2.1,1.1-2.9,1.9l-0.1,0h0c-4,3.7-4.3,10-0.1,16.7
						c6,9.6,18.8,16.2,28.7,14.9c6.6-0.9,10.1-5.1,10.1-10.6L363.6,414.5L363.6,414.5z"/>
					<path class="st35" d="M160,712.8l-13.2,18.4c10,6.9,23.4,4.3,23.4,4.3l15.2-23.2C179.8,719.1,168.6,717.1,160,712.8L160,712.8z
						"/>
					<path class="st36" d="M330.2,474.3c4.7,2.1,9.7,3.1,14.1,2.5c6.6-0.9,10.1-5.1,10.1-10.6l9.3-51.7L330.2,474.3L330.2,474.3z"/>
					<path class="st5" d="M363.6,414.5l-24.3,15.6c0,0,3.5,13,19,15.7L363.6,414.5L363.6,414.5z"/>
				</g>
				<path class="st28" d="M214.5,647.5L214.5,647.5c-0.6,3.9-3.7,6.7-6.8,6.1l-11.2-5.2c-3.1-0.6-0.9-0.5-0.3-4.4l0,0
					c0.6-3.9-2.3-5,3.9-5.2l8.8,1.9c1.1,0.3,2.3,0.7,3.3,1.3C214.2,643.2,215,644.5,214.5,647.5L214.5,647.5z"/>
				<path class="st27" d="M128.8,533.6c0,0-27.5,61.1-18,97.7c9.6,36.7,86.2,20,86.2,20l6.2-16.8c0,0-50.6-5-55.2-12.8
					c-6.2-10.5,9.3-75.3,13.6-76.7L128.8,533.6L128.8,533.6z"/>
				<path class="st31" d="M148.1,574.1c0,0-6,39.5-5.1,44.4c0.9,4.9,40.7,14.2,40.7,14.2"/>
			</g>
			<g>
				<path class="st25" d="M773.6,659.6l4.1-18.8c0.7-3.2,3.9-5.2,7.1-4.5l56.7,12.5c3.2,0.7,5.2,3.9,4.5,7.1l-4.1,18.8
					c-0.7,3.2-3.9,5.2-7.1,4.5l-56.7-12.5C774.9,666,772.9,662.9,773.6,659.6z"/>
				<g>
					<path class="st8" d="M785.2,645l3.1,0.7l-1.1,5.2l5.9,1.3l1.1-5.2l3.1,0.7l-3.1,13.9l-3.1-0.7l1.3-6l-5.9-1.3l-1.3,6l-3.1-0.7
						L785.2,645z"/>
					<path class="st8" d="M802.1,651.5l-4-0.9l0.6-2.7l11,2.4l-0.6,2.7l-4-0.9l-2.5,11.2l-3.1-0.7L802.1,651.5L802.1,651.5z"/>
					<path class="st8" d="M811.3,650.7l4.6,1l1.2,9.8h0l5.2-8.3l4.6,1l-3.1,13.9l-3-0.7l2.3-10.6h0l-6,9.8l-2.3-0.5l-1.2-11.4h0
						l-2.3,10.6l-3.1-0.7L811.3,650.7L811.3,650.7z"/>
					<path class="st8" d="M829.9,654.8l3.1,0.7l-2.4,11l5.7,1.3l-0.6,2.8l-8.7-1.9L829.9,654.8L829.9,654.8z"/>
				</g>
			</g>
			<g>
				<path class="st25" d="M708.5,617.9l52.3,11.6c4.6,1,7.6,5.6,6.5,10.2l-3.1,14c-1,4.6-5.6,7.6-10.2,6.5l-52.3-11.6
					c-4.6-1-7.6-5.6-6.5-10.2l3.1-14C699.2,619.8,703.8,616.9,708.5,617.9z"/>
				<g>
					<path class="st8" d="M712.8,637.3c-0.2,0.7-0.4,1.4-0.6,2s-0.6,1.2-1.1,1.6c-0.5,0.4-1,0.7-1.8,0.9s-1.6,0.1-2.6-0.1
						c-1.2-0.3-2.2-0.8-2.9-1.5c-0.7-0.8-1.1-1.8-1-3.1l3.3-0.1c0,0.4,0.1,0.7,0.3,1.1s0.5,0.5,0.9,0.6s0.7,0.1,1-0.1
						s0.5-0.4,0.6-0.6c0.2-0.3,0.3-0.6,0.4-0.9s0.2-0.7,0.2-0.9l2.2-9.9l3.4,0.8L712.8,637.3L712.8,637.3z"/>
					<path class="st8" d="M723.1,628.8l2.8,0.6l3.3,16.9l-3.8-0.8l-0.6-3.6l-6-1.3l-2,3l-3.7-0.8L723.1,628.8L723.1,628.8z
						 M723.4,633.6l-2.9,4.4l3.8,0.8L723.4,633.6L723.4,633.6z"/>
					<path class="st8" d="M731.3,630.7l3.9,0.9l1.6,10.9h0l6.1-9.2l3.6,0.8l-9.8,14l-2.7-0.6L731.3,630.7L731.3,630.7z"/>
					<path class="st8" d="M752,635.2l2.8,0.6l3.3,16.9l-3.8-0.8l-0.6-3.6l-6-1.3l-2,3l-3.7-0.8L752,635.2L752,635.2z M752.3,640
						l-2.9,4.4l3.8,0.8L752.3,640L752.3,640z"/>
				</g>
			</g>
			<g>
				<circle class="st37" cx="517" cy="379.9" r="27.9"/>
				<path class="st8" d="M516.5,378.7l0.9,0.2c7.1,1.2,11.8,7.9,10.6,15l-0.5,2.8l-26.5-4.5l0.5-2.8
					C502.8,382.3,509.5,377.5,516.5,378.7L516.5,378.7z"/>
				<ellipse transform="matrix(0.324 -0.946 0.946 0.324 1.3871 740.1722)" class="st8" cx="518.7" cy="369.1" rx="8.7" ry="8.7"/>
			</g>
		</g>
	</g>
</g>
</svg>
