<?xml version="1.0" encoding="utf-8"?>
<!-- Generator: Adobe Illustrator 23.0.5, SVG Export Plug-In . SVG Version: 6.00 Build 0)  -->
<svg version="1.1" id="Capa_1" xmlns="http://www.w3.org/2000/svg" xmlns:xlink="http://www.w3.org/1999/xlink" x="0px" y="0px"
	 viewBox="0 0 1351.4 1380" style="enable-background:new 0 0 1351.4 1380;" xml:space="preserve">
<style type="text/css">
	.st0{opacity:0.35;fill:#AFD1E8;enable-background:new    ;}
	.st1{fill:#60B806;}
	.st2{fill:none;stroke:#5188A1;stroke-width:2.27;stroke-linecap:round;stroke-linejoin:round;}
	.st3{fill:#EBE8F2;}
	.st4{fill:#1A1A1A;}
	.st5{fill:#4D4D4D;}
	.st6{fill:#FFFFFF;}
	.st7{fill:#FFE38A;}
	.st8{fill:#BD4FE1;}
	.st9{fill:#0A66C2;}
	.st10{fill:#808080;}
	.st11{fill:#2A628F;}
	.st12{fill:#FFE38A;stroke:#E9F4FD;stroke-miterlimit:10;}
	.st13{fill:#EBECF7;}
	.st14{fill-rule:evenodd;clip-rule:evenodd;fill:#B85031;stroke:#5188A1;stroke-miterlimit:10;}
	.st15{fill:#B85031;stroke:#5188A1;stroke-miterlimit:10;}
	.st16{fill-rule:evenodd;clip-rule:evenodd;fill:#8AC926;stroke:#5188A1;stroke-miterlimit:10;}
	.st17{fill-rule:evenodd;clip-rule:evenodd;fill:#B85031;}
	.st18{fill-rule:evenodd;clip-rule:evenodd;fill:#873B24;}
	.st19{fill:#E3E5EB;}
	.st20{fill:#B85031;}
	.st21{fill-rule:evenodd;clip-rule:evenodd;fill:#FFFFFF;}
	.st22{fill-rule:evenodd;clip-rule:evenodd;fill:#24386B;}
	.st23{fill:none;stroke:#1B2E54;stroke-width:1.25;stroke-linecap:round;stroke-linejoin:round;}
	.st24{fill-rule:evenodd;clip-rule:evenodd;fill:#8AC926;}
	.st25{fill:none;stroke:#0C7C59;stroke-width:1.29;stroke-linecap:round;stroke-linejoin:round;}
	.st26{fill:#B3B3B3;}
	.st27{fill:#999999;}
	.st28{fill:#FFA77A;}
	.st29{fill-rule:evenodd;clip-rule:evenodd;fill:#C95836;}
	.st30{fill:#24386B;}
	.st31{fill:none;stroke:#5565B5;stroke-width:1.58;stroke-linecap:round;stroke-linejoin:round;}
	.st32{fill:#E9F4FD;}
	.st33{fill-rule:evenodd;clip-rule:evenodd;fill:#D5DAE6;}
	.st34{fill-rule:evenodd;clip-rule:evenodd;fill:#0C7C59;}
	.st35{fill-rule:evenodd;clip-rule:evenodd;fill:#FFA77A;}
	.st36{fill-rule:evenodd;clip-rule:evenodd;fill:#AFD1E8;stroke:#5188A1;stroke-miterlimit:10;}
	.st37{fill:#C95836;}
	.st38{fill-rule:evenodd;clip-rule:evenodd;fill:#AFD1E8;}
	.st39{fill-rule:evenodd;clip-rule:evenodd;fill:#572A22;}
	.st40{fill:#B0AFD5;}
	.st41{fill:#FF5C00;}
	.st42{fill:#182E5A;}
</style>
<g id="Capa_1-2">
	<path class="st0" d="M24.8,694.5c-37.7-176.4-74.9-512.2,233-658.6c335.1-159.3,462.7,262.4,691.7,274.7
		c0,0,307.8-46.6,390.8,329.8c83,376.3-311.5,657.3-764.3,584.7C359.6,1190.4,80.5,955.2,24.8,694.5z"/>
	<path class="st1" d="M448.9,467.3c-48.3,49.2-54.8,99-52,131.5c-18.2-37.6-37.5-72.5-56.3-103.8c94.3-88.7,30.9-160.3,30.9-160.3
		c-46,48.6-52.6,96.9-49.9,129.4c-0.1-0.1-0.2-0.3-0.3-0.4c-26.4-41.6-52.6-78.5-75.6-108.9c81.9-108.3,3.5-168.3,3.5-168.3
		c-39.2,61.6-32.3,114.1-21.7,144.8c-24.9-31.6-44.3-53.8-53.3-63.9C121.4,167,31,175.4,31,175.4c37.4,99.2,99.5,103.7,128.8,99.6
		c7.1,7.8,28,31.3,55.9,66.8C128.6,310,70.5,359.2,70.5,359.2c89.2,61.1,143.1,26.9,163.9,6.8c22.6,29.9,48.1,65.9,73.8,106.5
		c2.7,4.2,5.4,8.5,8.1,12.9c-82.6-54.6-153.2-15.2-153.2-15.2c82.1,83.3,144.9,49.2,164.8,34.3c19.7,32.9,39.9,69.8,58.8,109.6
		c-79.8-52-148.6-15.2-148.6-15.2c75.8,79.8,136.4,55.3,160.1,40c38.8,86.6,53.3,79.9,13.3-8.8C512.5,541.8,448.9,467.3,448.9,467.3
		L448.9,467.3z"/>
	<circle class="st2" cx="599.5" cy="85.2" r="20.2"/>
	
		<ellipse transform="matrix(0.7071 -0.7071 0.7071 0.7071 -164.2034 1015.5553)" class="st2" cx="1143.8" cy="706" rx="20.2" ry="20.2"/>
	<circle class="st2" cx="66.1" cy="593.8" r="20.2"/>
	<path class="st3" d="M1022.6,1319.3c0,10.2-173.9,18.5-388.4,18.5s-388.4-8.3-388.4-18.5s173.9-18.5,388.4-18.5
		S1022.6,1309,1022.6,1319.3z"/>
	<g>
		<path class="st4" d="M365.1,270h552.1c10.3,0,18.6,8.3,18.6,18.6v1005.3c0,10.3-8.3,18.6-18.6,18.6H365.1
			c-10.3,0-18.6-8.3-18.6-18.6V288.6C346.5,278.3,354.9,270,365.1,270z"/>
		<path class="st5" d="M343.5,270h552.1c10.3,0,18.6,8.3,18.6,18.6v1005.3c0,10.3-8.3,18.6-18.6,18.6H343.5
			c-10.3,0-18.6-8.3-18.6-18.6V288.6C324.9,278.3,333.2,270,343.5,270z"/>
		<path class="st6" d="M347.6,316.1H891c1.5,0,2.7,1.2,2.7,2.7v939c0,1.5-1.2,2.7-2.7,2.7H347.6c-1.5,0-2.7-1.2-2.7-2.7v-939
			C344.9,317.3,346.1,316.1,347.6,316.1L347.6,316.1z"/>
	</g>
	<path class="st7" d="M393.7,421.6h194.4c6.3,0,11.4,5.1,11.4,11.4v194.4c0,6.3-5.1,11.4-11.4,11.4H393.7c-6.3,0-11.4-5.1-11.4-11.4
		V433C382.3,426.7,387.4,421.6,393.7,421.6z"/>
	<path class="st8" d="M656.1,421.6h194.4c6.3,0,11.4,5.1,11.4,11.4v194.4c0,6.3-5.1,11.4-11.4,11.4H656.1c-6.3,0-11.4-5.1-11.4-11.4
		V433C644.7,426.7,649.8,421.6,656.1,421.6z"/>
	<path class="st9" d="M393.7,682.6h194.4c6.3,0,11.4,5.1,11.4,11.4v194.4c0,6.3-5.1,11.4-11.4,11.4H393.7c-6.3,0-11.4-5.1-11.4-11.4
		V694C382.3,687.7,387.4,682.6,393.7,682.6z"/>
	<path class="st10" d="M656.1,682.6h194.4c6.3,0,11.4,5.1,11.4,11.4v194.4c0,6.3-5.1,11.4-11.4,11.4H656.1
		c-6.3,0-11.4-5.1-11.4-11.4V694C644.7,687.7,649.8,682.6,656.1,682.6z"/>
	<path class="st11" d="M393.7,943.7h194.4c6.3,0,11.4,5.1,11.4,11.4v194.4c0,6.3-5.1,11.4-11.4,11.4H393.7
		c-6.3,0-11.4-5.1-11.4-11.4V955.1C382.3,948.8,387.4,943.7,393.7,943.7z"/>
	<path class="st12" d="M656.1,943.7h194.4c6.3,0,11.4,5.1,11.4,11.4v194.4c0,6.3-5.1,11.4-11.4,11.4H656.1
		c-6.3,0-11.4-5.1-11.4-11.4V955.1C644.7,948.8,649.8,943.7,656.1,943.7z"/>
	<g>
		<path class="st13" d="M726.5,836.4c-1.7-0.5-3.2-1.3-4.3-2.5c-1.1-1.2-2-2.8-2.5-4.8s-0.8-4.5-0.8-7.5c0-2,0.1-3.9,0.2-5.6
			c0.1-1.7,0.2-3.3,0.3-4.9c0.1-1.6,0.2-3.2,0.3-4.8c0.1-1.6,0.2-3.3,0.2-5.2c0-1.1-0.2-2.1-0.5-3.1s-0.8-1.9-1.6-2.7s-1.8-1.5-3-2
			c-1.3-0.5-2.8-0.8-4.7-0.8v-7.9c1.9,0,3.5-0.3,4.7-0.8c1.3-0.5,2.3-1.2,3-2c0.8-0.8,1.3-1.7,1.6-2.7c0.3-1,0.5-2,0.5-3.1
			c0-1.9-0.1-3.7-0.2-5.3c-0.1-1.6-0.2-3.2-0.3-4.8c-0.1-1.6-0.2-3.2-0.3-4.9c-0.1-1.7-0.2-3.6-0.2-5.6c0-3,0.3-5.5,0.8-7.5
			c0.6-2,1.4-3.6,2.5-4.8s2.6-2.1,4.3-2.5s3.8-0.7,6.2-0.7h6.1v7.2h-2.6c-2.7,0-4.6,0.7-5.5,2c-1,1.3-1.4,3.7-1.4,7.1
			s0.1,6.4,0.3,9.5s0.3,6.4,0.3,10c0,4.1-0.6,7.1-1.8,9s-3.1,3.2-5.8,3.9v0.5c2.7,0.7,4.6,2,5.8,3.9s1.8,4.9,1.8,8.9
			c0,3.6-0.1,7-0.3,10s-0.3,6.2-0.3,9.5s0.5,5.8,1.4,7.1c0.9,1.3,2.8,2,5.5,2h2.6v7.2h-6.1C730.3,837.1,728.2,836.9,726.5,836.4
			L726.5,836.4z"/>
		<path class="st13" d="M770.1,830h2.6c2.7,0,4.5-0.7,5.5-2c0.9-1.3,1.4-3.7,1.4-7.1s-0.1-6.4-0.3-9.5s-0.3-6.4-0.3-10
			c0-4,0.6-7,1.8-8.9c1.2-1.9,3.1-3.2,5.8-3.9v-0.5c-2.7-0.7-4.6-2-5.8-3.9c-1.2-1.9-1.8-4.9-1.8-9c0-3.6,0.1-7,0.3-10
			s0.3-6.2,0.3-9.5s-0.5-5.8-1.4-7.1c-1-1.3-2.8-2-5.5-2h-2.6v-7.2h6.1c2.3,0,4.4,0.3,6.2,0.7c1.8,0.5,3.2,1.3,4.4,2.5
			c1.1,1.2,2,2.8,2.5,4.8s0.8,4.5,0.8,7.5c0,2-0.1,3.9-0.2,5.6s-0.2,3.3-0.3,4.9c-0.1,1.6-0.2,3.2-0.3,4.8c-0.1,1.6-0.2,3.4-0.2,5.3
			c0,1.1,0.2,2.1,0.5,3.1s0.8,1.9,1.6,2.7c0.8,0.8,1.8,1.5,3,2c1.3,0.5,2.8,0.8,4.7,0.8v7.9c-1.9,0-3.5,0.3-4.7,0.8
			c-1.3,0.5-2.3,1.2-3,2s-1.3,1.7-1.6,2.7c-0.3,1-0.5,2.1-0.5,3.1c0,1.8,0.1,3.5,0.2,5.2c0.1,1.6,0.2,3.2,0.3,4.8
			c0.1,1.6,0.2,3.2,0.3,4.9c0.1,1.7,0.2,3.6,0.2,5.6c0,3-0.3,5.5-0.8,7.5c-0.6,2-1.4,3.6-2.5,4.8s-2.6,2.1-4.4,2.5
			c-1.8,0.5-3.8,0.7-6.2,0.7h-6.1V830L770.1,830z"/>
	</g>
	<path class="st6" d="M536,1045.1L536,1045.1c-6.9-0.1-10.4-8.4-5.5-13.2c3.3-3.2,3.3-8.5,0-11.9l-3.5-3.5c-3.3-3.3-8.7-3.4-12-0.1
		l0,0c-4.9,4.8-13.3,1.3-13.3-5.6l0,0c0-4.6-3.8-8.4-8.5-8.5l-5-0.1c-4.7,0-8.5,3.7-8.4,8.3l0,0c0,6.9-8.3,10.2-13.2,5.3l0,0
		c-3.3-3.3-8.7-3.4-12-0.1l-3.5,3.5c-3.3,3.2-3.3,8.5,0,11.9c4.9,4.9,1.5,13.2-5.5,13.1l0,0c-4.7-0.1-8.5,3.7-8.4,8.3v4.9
		c0,4.6,3.8,8.4,8.5,8.5l0,0c6.9,0.1,10.4,8.4,5.5,13.2l0,0c-3.3,3.2-3.3,8.6,0,11.9l3.5,3.5c3.3,3.3,8.7,3.4,12,0.1l0,0
		c4.9-4.8,13.3-1.3,13.3,5.6l0,0c0,4.6,3.8,8.4,8.5,8.5l5,0.1c4.7,0.1,8.5-3.7,8.4-8.3l0,0c0-6.9,8.3-10.2,13.2-5.3
		c3.3,3.3,8.7,3.4,12,0.1l3.5-3.4c3.3-3.2,3.3-8.6,0-11.9l0,0c-4.9-4.9-1.5-13.2,5.5-13.1l0,0c4.7,0.1,8.5-3.7,8.4-8.3v-4.9
		C544.5,1049,540.7,1045.2,536,1045.1L536,1045.1z M510.9,1055.7c0,11-8.9,19.7-20,19.6s-20-9.1-20-20.1c0-11,8.9-19.7,20-19.6
		S510.9,1044.8,510.9,1055.7z"/>
	<path class="st6" d="M412.4,626.7L412.4,626.7c-3.9-0.7-6.5-4.4-5.8-8.3l5.6-31.7c0.7-3.9,4.4-6.5,8.3-5.8l0,0
		c3.9,0.7,6.5,4.4,5.8,8.3l-5.6,31.7C420,624.8,416.3,627.4,412.4,626.7z"/>
	<g>
		<path class="st14" d="M350.4,753.4c17.1,6.5,35,2.2,44.9-16.7l28.3-100l-21.5,2.3L369,709.7L350.4,753.4L350.4,753.4z"/>
		<path class="st15" d="M400.8,644l2-18.9c0.4-3.8,2.2-7.3,4.9-9.8l11.2-10.5c3.9-3.7,10.3-2.3,12.3,2.7l0,0l-3.9,23.5
			c-0.9,5.2-3.8,10.2-8.3,14l-7.4,6.3L400.8,644L400.8,644z"/>
		<path class="st16" d="M395.1,642.3l28.8,15.7c0,0-24.8,81.2-28.1,88.9s-18.7,25.3-35.3,27.6s-117.7,19.3-117.7,19.3
			s-45.1-86.2-4.6-87.3c35.7-1,118.6,9.6,118.6,9.6L395.1,642.3L395.1,642.3z"/>
	</g>
	<path class="st17" d="M226.9,677c0,0-2.5,17.9-4.6,32.8c-0.6,4-3.6,7.4-7.9,8.9c-4.3,1.5-9.2,1-12.9-1.5c-1.2-0.8-2.4-1.6-3.5-2.3
		c-5-3.4-7.3-8.9-5.9-14.2c3.6-13.7,10.3-38.5,10.3-38.5L226.9,677L226.9,677L226.9,677z"/>
	<polygon class="st18" points="226.5,686.8 224.1,697.5 216.6,685.1 	"/>
	<ellipse class="st19" cx="230.6" cy="1336.8" rx="150.8" ry="22.3"/>
	<path class="st17" d="M88.1,796.9c-16.4,6.9-26,22-20.3,42l46.7,89.9l13.6-16.1l-23.9-72.4L88.1,796.9L88.1,796.9z"/>
	<path class="st20" d="M128,912.7l2.4,18.3c0.5,3.7-0.4,7.4-2.3,10.5L120,954c-2.8,4.4-9.1,4.5-12.1,0.3l0,0l-1.8-23.2
		c-0.4-5.1,1.2-10.5,4.6-15.2l5.5-7.7L128,912.7L128,912.7z"/>
	<path class="st16" d="M130.5,905.6l-30.6,8.2c0,0-34.8-65.5-37.6-73.2c-2.8-7.7-3.7-23.8,6.5-36.6c8-10.1,37.3-54.9,49.2-73.3
		c5.2-8,12.5-14.4,21.4-17.8c10.9-4.2,25.1-4.3,34.6,14.9c12.4,25-65.6,99.8-65.6,99.8L130.5,905.6L130.5,905.6z"/>
	<path class="st17" d="M240.5,1325.4c0,0-40.4-140.7-12.9-197.2l-27.5-188.8l94.3-6l-33.4,393.1L240.5,1325.4L240.5,1325.4z"/>
	<path class="st21" d="M261.8,1320.8l17.9,13c3.5,3.2,22.7,9.5,22.7,9.5l0,0c1.9,4-1.8,6.1-5,6.6l-56.7-1.2c0,0-13.1-2.7-1.5-27.9
		C249.6,1325.3,259.1,1328.6,261.8,1320.8L261.8,1320.8z"/>
	<path class="st22" d="M163.1,840.1l123.3,9.4c20,7.4,7.2,120.8,7.2,120.8l-76.2,5.9c-38.6-0.6-93.9,0.1-89.4-54.8
		C133.9,849.7,163.1,840.1,163.1,840.1L163.1,840.1z"/>
	<path class="st22" d="M294.5,954.7l-10,178.5l-6.6,157.4h-66c0,0,6.2-28.6,5.4-37.6c-0.7-9.1-15.9-91-3.3-128.6l-16-169.7
		L294.5,954.7L294.5,954.7z"/>
	<path class="st17" d="M164,1325.7c0,0-40.4-140.7-12.9-197.2L151,974.9l54.7,3.7l-21.1,348.3L164,1325.7L164,1325.7z"/>
	<path class="st21" d="M185.3,1322.1l9.9,10.4c3.5,3.2,14.7,10,14.7,10s11.1,9.5-5,8.3l-40.6-0.7c0,0-13.1-2.7-1.5-27.9
		C173.1,1326.7,182.6,1330,185.3,1322.1L185.3,1322.1z"/>
	<path class="st22" d="M208,950.3l-4.8,179.6l-7.6,162l-51.3-2.1c0,0-2-23.6-2.8-32.7c-0.7-9.1-20.1-91.7,0-131.2l-7.9-178.5
		L208,950.3L208,950.3z"/>
	<polyline class="st23" points="205.5,1036.5 194.8,962.4 177.6,957.4 	"/>
	<path class="st24" d="M222.8,699.2l-22.1-1.5l-6.8,0.2l-48.8,13.2c-15,7.4-22.4,27.4-16.7,43.1l-3.4,32.9
		c-9.3,38.4-0.7,94.4-3.3,133.8c63,23.4,158.1,20,178-9c-1.8-41.7-1-107.8-10-143.1c-6.4-24.8-1.6-37.4-12.1-55.1
		C269.9,700.9,229.6,702,222.8,699.2L222.8,699.2z"/>
	<polyline class="st25" points="123.4,849.5 121.5,779.7 115.8,773.4 	"/>
	<polyline class="st25" points="293.9,783.7 286.6,791.5 279.3,810.1 	"/>
	<g>
		<ellipse class="st19" cx="890.5" cy="1355.9" rx="202" ry="24.1"/>
		<path class="st26" d="M949.1,1358.9L949.1,1358.9c-3.4,0-6.1-1.9-6.1-4.2l4.1-229.4c0-2.3,2.8-4.1,6.1-4.1h0.1c3.3,0,6,1.9,6,4.2
			l-4.1,229.4C955.1,1357.1,952.4,1358.9,949.1,1358.9L949.1,1358.9z"/>
		<path class="st24" d="M1047.7,1131.8L1047.7,1131.8c0-20.1-16.3-36.4-36.4-36.4H889.4c-20.1,0-36.4,16.3-36.4,36.4l0,0
			c0,20.1,16.3,36.4,36.4,36.4h121.8C1031.4,1168.2,1047.7,1151.9,1047.7,1131.8z"/>
		<path class="st27" d="M858.8,1354.5c-0.1,0-0.3,0-0.4,0c-3.3-0.2-5.9-2.1-5.6-4.4l9.7-92.7l11.7-118.8c0.2-2.3,3.1-4,6.5-3.8
			c3.3,0.2,5.9,2.1,5.7,4.4l-11.7,118.8l-9.7,92.8C864.6,1352.8,862,1354.5,858.8,1354.5L858.8,1354.5z"/>
		<path class="st27" d="M1028.3,1316.5h-0.1l-159.4-2.1c-3.8-0.1-6.9-2.8-6.8-6.2c0.1-3.3,3.2-6,7-6h0.1l159.4,2.1
			c3.8,0.1,6.9,2.8,6.8,6.2C1035.1,1313.8,1032,1316.5,1028.3,1316.5z"/>
		<path class="st27" d="M1033.6,1355c-3.2,0-5.8-1.7-6.1-3.8l-19.6-218.3c-0.2-2.3,2.3-4.2,5.7-4.3c3.4-0.2,6.2,1.6,6.4,3.8
			l19.6,218.3c0.2,2.3-2.3,4.2-5.7,4.3C1033.8,1355,1033.7,1355,1033.6,1355L1033.6,1355z"/>
		<path class="st28" d="M894.5,781.7l-12.6,34c-4.9,13.3,0.5,28.5,11.5,31.9c17.9,5.6,44.9,12.3,70.1,12.1
			c11.9-0.1,20.7-14.7,17.4-28.9l-32.8-50.5L894.5,781.7L894.5,781.7z"/>
		<path class="st29" d="M922.4,1284.5c2.3,15,0.3,28.7,0.8,39.6c0.3,6.5,1.9,2.7-5,5.2c-8.5,3.1-8.8,15-12.4,7.9l-15.7-57.9
			L922.4,1284.5L922.4,1284.5z"/>
		<path class="st30" d="M756.3,1143.3c0,0-15-40.7,40.2-75.3c8.3-5.2,94.9-62.8,98.5-57.9c3.9,5.4,59.8,3.4,58.4,6.8
			c-22.8,56.5-147.5,137.9-147.5,137.9L756.3,1143.3L756.3,1143.3z"/>
		<path class="st30" d="M834.3,1147.8c0,0-6.5-25.6,19.5-51.8c29-29.2,87.6-70.9,91.7-66.6c4.5,4.8,50.9,67.9,48.6,69.7
			c-32.7,25.1-104.7,62.6-104.7,62.6L834.3,1147.8L834.3,1147.8z"/>
		<path class="st30" d="M835.2,1147.4c-1.4,8.9,53.7,158.1,53.7,158.1l37.5-0.9c0,0,5.1-146.6-51.3-179.7
			C875,1124.8,835.9,1142.8,835.2,1147.4L835.2,1147.4z"/>
		<path class="st29" d="M841,1284.5c1.4,15-1.4,28.7-1.5,39.6c-0.1,6.5,1.7,2.7-5.3,5.2c-8.7,3.1-9.7,15-13,7.9l-12.3-57.9
			L841,1284.5L841,1284.5z"/>
		<path class="st21" d="M817.5,1325.2l-16.9,13.1c-3.4,3.3-23,9.3-23,9.3l0,0c-1.7,4.1,2.4,6.5,5.7,7.1l59.1,0.4
			c0,0,13.5-2.5-0.5-29.3C831.4,1330.3,820.9,1333.5,817.5,1325.2L817.5,1325.2z"/>
		<path class="st21" d="M901.8,1325.2l-8.3,11.5c-3.4,3.3-19.1,11.8-19.1,11.8c-1.6,4.1,1.6,6.4,4.3,7l47.9-0.3
			c0,0,11.8-2.4-2.2-29.2C914,1330.4,905.2,1333.5,901.8,1325.2L901.8,1325.2z"/>
		<path class="st30" d="M756.4,1143.3c-1.4,8.9,49.7,162.2,49.7,162.2l37.5-0.9c0,0,5.1-146.6-51.3-179.7
			C792.2,1124.8,757.1,1138.7,756.4,1143.3L756.4,1143.3z"/>
		<path class="st30" d="M853.8,1113.2c2.7-5.8,71.9-72.2,76.2-75.1l-13.6-32.3l-1.2-5.2l9.4-0.9l14.1-10.5l3.8,8.8l67-6.5
			c0,0,13.9,97.7-18.1,110s-95.6,16.1-95.6,16.1C848.3,1128.4,848.6,1124.6,853.8,1113.2L853.8,1113.2z"/>
		<path class="st31" d="M833.5,1141.4c0,0-0.4-21.9,5.6-30.7c6-8.8,41-39.4,39.8-39.1"/>
		<path class="st32" d="M882.3,1102.6l-93.3-17.9c-19.7-3.8-21.2-32.7-2.2-42.6l16.9-8.9l123.4,24.1c4.8,0.9,5.6,7.6,1.4,10.8
			L882.3,1102.6L882.3,1102.6z"/>
		<path class="st33" d="M885.1,1100.1l-111-18.8l-26.9-81.2c-0.6-1.8,0.7-3.6,2.5-3.3l105.7,17.9c1,0.2,1.8,0.9,2.1,1.9
			L885.1,1100.1L885.1,1100.1z"/>
		<path class="st34" d="M882.3,1102.6l-111-18.8l-26.9-81.2c-0.6-1.8,0.7-3.6,2.5-3.3l105.7,17.9c1,0.2,1.8,0.9,2.1,1.9
			L882.3,1102.6L882.3,1102.6z"/>
		<path class="st21" d="M817,1050.2c1,5.2-2.9,8.6-8.7,7.6s-11.2-6-12.2-11.1c-1-5.2,2.9-8.6,8.7-7.6S816,1045,817,1050.2z"/>
		<path class="st35" d="M913.7,767.1c0,0-25.7-0.4-24.5,28.5c1.2,29,37.7-0.3,37.7-0.3L913.7,767.1L913.7,767.1z"/>
		<path class="st29" d="M819.7,940.6L853,876c9.3-20.2,23.4-25.8,37.4-12.5l0,0c5.5,5.2,6.3,15.3,1.8,22.6l-38.4,61.6
			c-19.3,31-38,21.2-47.2,10.6L819.7,940.6L819.7,940.6z"/>
		<path class="st29" d="M832.9,937.7c0,0-12.6,33.7-26.8,20.1l-58.6-84l18.8-2.6l50.4,49.7L832.9,937.7L832.9,937.7z"/>
		<path class="st36" d="M875.1,840.2l36.6-8.5c0.1,0,0.1,0,0.2-0.1l5.2-3.6c0.1-0.1,0.2-0.1,0.3-0.1l11.5,0.7c0,0,0,0,0.1,0
			l35.7,6.5c0.1,0,0.1,0,0.2,0.1c14.7,8.1,14.9,10.7,21.5,30c0,0.1,0,0.2,0,0.2l11.5,50.1c0,0.1,0.9,5.4,0.9,5.5
			c10.8,40.8,13.8,57.9,19.2,106.5c1.2,11-10.3,13-10.5,13c-39.3,6.3-110.9,0.2-133.5-12.6c-13.9-7.9-6.9-32.8-8.2-49.2
			c-5.7-71.3-9.7-100,9.2-138.3C875.1,840.3,874.9,840.2,875.1,840.2L875.1,840.2z"/>
		<path class="st29" d="M905,806.2c0,0,2.8,17.8,5.2,32.5c0.6,3.9,3.2,7.2,6.8,8.6c3.6,1.4,7.6,0.7,10.5-1.8c1-0.8,1.9-1.6,2.7-2.4
			c4-3.5,5.6-9.1,4.2-14.3c-3.6-13.5-10-38-10-38L905,806.2L905,806.2L905,806.2z"/>
		<path class="st18" d="M906.2,814.2l2,10.6c7.4-2.3,11.3-9.3,14.6-17.2L906.2,814.2L906.2,814.2z"/>
		<path class="st29" d="M935.9,789.6c1.8-4.7-0.3-9.9-4.7-11.8c-4.8-2-10.7-4.5-15.5-6.5c-4.5-1.9-8.9,0.7-11.4,5
			c-3,5.1-6.6,16.7-8.3,25.4c-0.9,4.9,0.8,10.6,5.3,12.5c4.8,2,20.8,3.3,25.7-5.1C930.8,802.8,933.2,796.4,935.9,789.6L935.9,789.6
			L935.9,789.6z"/>
		<path class="st21" d="M898.4,798.5l7.8,3.1c0,0-2.2,5.5-5.8,3.6C896.8,803.2,898.4,798.5,898.4,798.5L898.4,798.5z"/>
		<path class="st29" d="M972,1022.2l-7.5-87.5c0-22.5,4.8-38.1,23.8-36.6l6.6,4c7.5,0.6,10.9,4.2,9.8,13.1l-5.2,87.3L972,1022.2
			L972,1022.2z"/>
		<path class="st37" d="M766.5,871l-13.5-11c-2.7-2.2-6.1-3.3-9.6-3.2l-14.1,0.7c-4.9,0.2-8.2,5.4-6.4,10l0,0l17.7,12.8
			c3.9,2.8,9.1,4.1,14.5,3.6l9-0.8L766.5,871L766.5,871z"/>
		<path class="st29" d="M999,979.7c0,0,9,32.1-8,41.1l-85.5,30.4l5.3-18.5l58.8-40.7L999,979.7L999,979.7z"/>
		<path class="st37" d="M910.9,1032.6l-15.7,7.6c-3.1,1.5-5.6,4.1-6.9,7.3l-5.4,13.1c-1.9,4.6,1.4,9.7,6.4,10l0,0l19.1-10.7
			c4.2-2.3,7.6-6.5,9.4-11.6l3-8.5L910.9,1032.6L910.9,1032.6z"/>
		<path class="st35" d="M909.2,769.4c0,0,5,27.1,14,30.8c4.6,1.9,7.6,10.1,10.9,13.5c6,6,16.2-12.3,16.1-20.8
			c-0.1-12.5-2.6-17.6-15.8-25.4C926.4,762.7,917,756.8,909.2,769.4L909.2,769.4z"/>
		<path class="st29" d="M931.1,808.4c-2.7,3.1-6.8,3.7-9.2,1.4c-2.4-2.3-2.2-6.6,0.5-9.7c2.7-3.1,6.8-3.7,9.2-1.4
			S933.8,805.3,931.1,808.4L931.1,808.4z"/>
		<path class="st38" d="M956.9,872.8l2.7,66.8l53.2-2.3c-6-13.3-9.1-67.5-27.7-91.1c-4.6-5.9-13.7-10.8-20.4-11
			C952.1,834.8,956.9,872.8,956.9,872.8L956.9,872.8z"/>
		<path class="st38" d="M875,840.2c0,0-18.7,2.6-29.1,37.8c-10.4,35.2-19.2,42.8-19.2,42.8l55,20.9l8.4-81.2L875,840.2L875,840.2z"
			/>
		<path class="st29" d="M900.3,834.4c0,0-6.8,32.7,10.9,34.3c17.7,1.5,32.2-37.5,32.2-37.5s-11.9-5.3-12.4-5.2
			C930.5,826,900.3,834.4,900.3,834.4L900.3,834.4z"/>
	</g>
	<path class="st39" d="M237.1,664.2c0,0,13.6-13.1-1.7-29c-15.3-15.8-19.9,19-19.4,19.5S237.1,664.2,237.1,664.2L237.1,664.2z"/>
	<path class="st39" d="M188.1,663.4c0,0,3.7,17.7,9.3,17.7c13.6-0.1,21.3-36.3,21.3-36.3L188.1,663.4L188.1,663.4z"/>
	<path class="st17" d="M197.8,650.7c-0.7-5.7,3.3-10.9,8.9-11.6c6-0.8,13.6-1.7,19.6-2.5c5.6-0.7,9.9,3.5,11.5,9
		c1.8,6.5,2.5,20.4,1.8,30.6c-0.4,5.7-4.2,11.4-9.8,12.1c-6,0.8-22.2-2-25.3-12.7C202.2,667.6,198.8,659.1,197.8,650.7L197.8,650.7
		L197.8,650.7z"/>
	<path class="st39" d="M185,666.7c0,0-2.3-22.1,6.6-30c11.9-10.7,27.5-16.3,43.8-1.4c0,0,16,6.7-14.1,9.6c-3.8,0.4-0.9,19.6-5.8,21
		C208.9,667.8,195.6,667.3,185,666.7L185,666.7L185,666.7z"/>
	<path class="st17" d="M203.1,673.6c2.1,4.2,6.6,6.2,10.1,4.4c3.4-1.8,4.5-6.6,2.4-10.8c-2.1-4.2-6.6-6.2-10.1-4.4
		C202,664.5,201,669.4,203.1,673.6z"/>
	<path class="st21" d="M237.8,672.3l-6.7,0.5c0,0,0,7.1,4.8,6.2C237.4,678.7,237.8,672.3,237.8,672.3z"/>
	<path class="st6" d="M755.1,498l7.3,14.9c0.7,1.5,2.2,2.5,3.8,2.8l16.4,2.4c4.2,0.6,5.8,5.8,2.8,8.7l-11.9,11.6
		c-1.2,1.2-1.8,2.9-1.5,4.5l2.8,16.4c0.7,4.2-3.7,7.3-7.4,5.4l-14.7-7.7c-1.5-0.8-3.3-0.8-4.7,0l-14.7,7.7c-3.7,2-8.1-1.2-7.4-5.4
		l2.8-16.4c0.3-1.7-0.3-3.3-1.5-4.5l-11.9-11.6c-3-3-1.4-8.1,2.8-8.7l16.4-2.4c1.7-0.2,3.1-1.3,3.8-2.8l7.3-14.9
		C747.8,494.2,753.2,494.2,755.1,498L755.1,498z"/>
	<g>
		<path class="st6" d="M480.4,559.5c0,0,6.1,9.1,10.7,10.8c1.6,0.6,3.1,1.1,4.4,1.4c2.2,0.6,4,2.2,4.8,4.3c1.2,3.1,3.4,7.3,6.4,9
			c2.3,1.3,5.8,2.4,8.8,3.3c3.5,1,5.2,5,3.4,8.2c-2.7,4.8-7.4,10.9-14.8,13.5c0,0-9.6-7.2-16-14c-4.9-5.1-12.6-14.3-17.2-18
			s-4-4.4-4-4.4L480.4,559.5L480.4,559.5z"/>
		<path class="st40" d="M480.4,559.5l-13.6,14c0,0-0.5,0.7,4,4.4c0.2,0.1,0.3,0.3,0.5,0.4c2.7-2.7,10-10.2,13.4-13.3
			C482.2,562.3,480.4,559.5,480.4,559.5z"/>
		<path class="st6" d="M480.9,553.3l1.4,3.8c0.4,1.1,0.2,2.4-0.5,3.3l-12.4,15.4c-0.8,1-1.8,1.7-3,2.1l-9.4,3.4
			c-3.5,1.3-7.5-0.5-8.7-4.1l-3.9-10.7L480.9,553.3L480.9,553.3z"/>
		<path class="st41" d="M426.9,566.3l7.8-2.8c0.7-0.3,1.1-1.1,0.8-1.8L423.9,530c-0.3-0.7-1.1-1.1-1.8-0.8l-7.8,2.8
			c-2.4,0.9-3.7,3.6-2.8,6l9.4,25.6C421.8,566,424.5,567.2,426.9,566.3z"/>
		<path class="st6" d="M466.7,511.8l5.6,15.4l2,5.4l5.6,15.4c28.5-10.4,48.3-16.6,87,5.4l-18.1-49.6l-1-2.8l-18.1-49.6
			C514.4,493.4,495.2,501.4,466.7,511.8L466.7,511.8z"/>
		<path class="st41" d="M523.3,538.7c7.3,0.4,15.1,2,23.9,5.3l-26.5-72.6c-4.6,8.2-9.5,14.5-14.9,19.5L523.3,538.7L523.3,538.7z"/>
		<path class="st41" d="M435.4,566.5l5.5-2l-14.6-40.1l-5.5,2c-1.2,0.4-1.8,1.8-1.4,3l13,35.7C432.9,566.3,434.2,566.9,435.4,566.5
			L435.4,566.5z"/>
		<path class="st40" d="M482.3,557.3c0,0,0-0.1,0-0.2l-1.4-3.8l-36.6,13.4l1.5,4"/>
		<path class="st41" d="M444.4,568.4l40.4-14.7c1.6-0.6,2.4-2.3,1.8-4l-15.9-43.5c-0.6-1.6-2.4-2.4-3.9-1.8l-40.4,14.7
			c-1.6,0.6-2.4,2.3-1.8,3.9l15.9,43.5C441.1,568.1,442.9,568.9,444.4,568.4L444.4,568.4z"/>
		<path class="st6" d="M471.2,516.9l-40,14.6c-1.7,0.6-2.9,1.7-2.6,2.5l0.2,0.7l-4.5,1.6c-1.2,0.4-2,1.2-1.8,1.8l0.1,0.3l-4.7,1.7
			c-2.8,1-4.6,2.8-4.2,4l-1.8-5c-0.5-1.2,1.4-3,4.2-4l4.7-1.7l-0.1-0.3c-0.2-0.5,0.6-1.3,1.8-1.8l4.5-1.6l-0.2-0.7
			c-0.3-0.8,0.9-1.9,2.6-2.5l40-14.6c1.7-0.6,3.3-0.5,3.6,0.2l1.8,5C474.5,516.4,472.9,516.3,471.2,516.9z"/>
		<path class="st42" d="M531.4,448.8l-0.9,0.3c-1.1,0.4-1.7,1.6-1.3,2.8l37.1,101.7c0.4,1.1,1.7,1.7,2.8,1.3l0.9-0.3
			c1.1-0.4,1.7-1.7,1.3-2.8l-37.1-101.7C533.8,449,532.6,448.4,531.4,448.8L531.4,448.8z"/>
	</g>
</g>
</svg>
